<svg width="15" height="15" viewBox="0 0 15 15" fill="none" xmlns="http://www.w3.org/2000/svg">
<path d="M7.5 0C3.375 0 0 3.375 0 7.5C0 11.625 3.375 15 7.5 15C11.625 15 15 11.625 15 7.5C15 3.375 11.625 0 7.5 0ZM7.5 1.875C10.6125 1.875 13.125 4.3875 13.125 7.5C13.125 10.6125 10.6125 13.125 7.5 13.125C4.3875 13.125 1.875 10.6125 1.875 7.5C1.875 4.3875 4.3875 1.875 7.5 1.875ZM11.25 3.75L5.625 5.625L3.75 11.25L9.375 9.375L11.25 3.75ZM7.5 6.5625C8.025 6.5625 8.4375 6.975 8.4375 7.5C8.4375 8.025 8.025 8.4375 7.5 8.4375C6.975 8.4375 6.5625 8.025 6.5625 7.5C6.5625 6.975 6.975 6.5625 7.5 6.5625Z" fill="#A7A7A7"/>
</svg>
