<svg width="13" height="13" viewBox="0 0 13 13" fill="none" xmlns="http://www.w3.org/2000/svg">
<path d="M3.44444 12H9.55556M4.66667 9.55556V12M8.33333 9.55556V12M2.95556 9.55556H10.0444C10.7289 9.55556 11.0712 9.55556 11.3327 9.42233C11.5626 9.30518 11.7496 9.11818 11.8668 8.88822C12 8.62679 12 8.28451 12 7.6V2.95556C12 2.27105 12 1.92879 11.8668 1.66735C11.7496 1.43737 11.5626 1.25039 11.3327 1.13322C11.0712 1 10.7289 1 10.0444 1H2.95556C2.27105 1 1.92879 1 1.66735 1.13322C1.43737 1.25039 1.25039 1.43737 1.13322 1.66735C1 1.92879 1 2.27104 1 2.95556V7.6C1 8.28451 1 8.62679 1.13322 8.88822C1.25039 9.11818 1.43737 9.30518 1.66735 9.42233C1.92879 9.55556 2.27104 9.55556 2.95556 9.55556Z" stroke="#A7A7A7" stroke-width="1.5" stroke-linecap="round" stroke-linejoin="round"/>
</svg>
