<svg width="17" height="17" viewBox="0 0 17 17" fill="none" xmlns="http://www.w3.org/2000/svg">
<path d="M14.3333 6.38971V11.8894C14.3333 13.3282 14.3333 14.0476 14.0608 14.5972C13.8212 15.0806 13.4387 15.4737 12.9683 15.72C12.4335 16 11.7335 16 10.3333 16H6.66667C5.26653 16 4.56647 16 4.03169 15.72C3.56128 15.4737 3.17883 15.0806 2.93915 14.5972C2.66667 14.0476 2.66667 13.3282 2.66667 11.8894V6.38914M16 8.29254L11.4723 3.12335C10.4426 1.94773 9.92775 1.35992 9.32133 1.14292C8.78883 0.952319 8.20917 0.952361 7.67658 1.14304C7.07025 1.36014 6.55551 1.94803 5.52595 3.1238L1 8.29254M10.1667 8.29254C10.1667 9.23842 9.4205 10.0053 8.5 10.0053C7.5795 10.0053 6.83333 9.23842 6.83333 8.29254C6.83333 7.34658 7.5795 6.57974 8.5 6.57974C9.4205 6.57974 10.1667 7.34658 10.1667 8.29254Z" stroke="#A7A7A7" stroke-width="1.5" stroke-linecap="round" stroke-linejoin="round"/>
</svg>
