<svg width="17" height="18" viewBox="0 0 17 18" fill="none" xmlns="http://www.w3.org/2000/svg">
<path d="M13.2714 1H3.72857C3.00491 1 2.31089 1.30124 1.79918 1.83746C1.28747 2.37368 1 3.10095 1 3.85928V11C1 11.7583 1.28747 12.4856 1.79918 13.0218C2.31089 13.558 3.00491 13.8593 3.72857 13.8593H6.45714L8.5 16L10.5429 13.8593H13.2714C13.9951 13.8593 14.6891 13.558 15.2008 13.0218C15.7125 12.4856 16 11.7583 16 11V3.85928C16 3.10095 15.7125 2.37368 15.2008 1.83746C14.6891 1.30124 13.9951 1 13.2714 1Z" stroke="#A7A7A7" stroke-width="1.5" stroke-miterlimit="10"/>
<path d="M6.51465 9.67188H8.84947C9.11459 9.67188 9.36885 9.55479 9.55632 9.34637C9.74379 9.13796 9.8491 8.85528 9.8491 8.56054C9.8491 8.26579 9.74379 7.98312 9.55632 7.7747C9.36885 7.56629 9.11459 7.4492 8.84947 7.4492H8.15042C7.8853 7.4492 7.63104 7.33211 7.44357 7.1237C7.2561 6.91528 7.15078 6.63261 7.15078 6.33786C7.15078 5.7239 7.59817 5.21875 8.8215 5.21875H10.4852" stroke="#A7A7A7" stroke-width="1.5" stroke-miterlimit="10"/>
<path d="M8.5 3.8125V5.21875" stroke="#A7A7A7" stroke-width="1.5" stroke-miterlimit="10"/>
<path d="M8.5 9.67188V11.0781" stroke="#A7A7A7" stroke-width="1.5" stroke-miterlimit="10"/>
</svg>
