<svg width="17" height="19" viewBox="0 0 17 19" fill="none" xmlns="http://www.w3.org/2000/svg">
<path d="M7.84563 17.7776C8.05319 17.894 8.15697 17.9522 8.30341 17.9824C8.41713 18.0059 8.58287 18.0059 8.69659 17.9824C8.84303 17.9522 8.94681 17.894 9.15437 17.7776C10.9806 16.7533 16 13.5357 16 9.11172V4.24469C16 3.74182 16 3.49039 15.8993 3.29875C15.8101 3.12886 15.6707 2.99325 15.495 2.90543C15.2969 2.80638 15.0309 2.80336 14.4989 2.79731C11.713 2.76564 10.1065 2.54448 8.5 1C6.8935 2.54448 5.28699 2.76564 2.50113 2.79731C1.96912 2.80336 1.70312 2.80638 1.50498 2.90543C1.32933 2.99325 1.18993 3.12886 1.10068 3.29875C1 3.49039 1 3.74182 1 4.24469V9.11172C1 13.5357 6.01934 16.7533 7.84563 17.7776Z" stroke="#A7A7A7" stroke-width="1.5" stroke-linecap="round" stroke-linejoin="round"/>
</svg>
