<svg width="13" height="13" viewBox="0 0 13 13" fill="none" xmlns="http://www.w3.org/2000/svg">
<path d="M10.8334 0C9.64175 0 8.66675 0.975 8.66675 2.16666V4.875C8.66675 5.2 8.88341 5.41666 9.20841 5.41666H12.4584C12.7834 5.41666 13.0001 5.2 13.0001 4.875V2.16666C13.0001 0.975 12.0251 0 10.8334 0ZM11.9167 4.33334H9.75006V2.16666C9.75006 1.57082 10.2376 1.08332 10.8334 1.08332C11.4292 1.08332 11.9167 1.57082 11.9167 2.16666V4.33334H11.9167Z" fill="#A7A7A7"/>
<path d="M9.20841 9.75C8.88341 9.75 8.66675 9.96666 8.66675 10.2917V10.8333C8.66675 11.1583 8.88341 11.375 9.20841 11.375C9.53341 11.375 9.75006 11.1583 9.75006 10.8333V10.2917C9.75006 9.96666 9.53341 9.75 9.20841 9.75Z" fill="#A7A7A7"/>
<path d="M9.20841 10.2917C8.88341 10.2917 8.66675 10.5084 8.66675 10.8334C8.66675 11.4292 8.17925 11.9167 7.58341 11.9167C6.98756 11.9167 6.50006 11.4292 6.50006 10.8334V10.2917C6.50006 9.96672 6.28341 9.75006 5.95841 9.75006C5.63341 9.75006 5.41675 9.96672 5.41675 10.2917V10.8334C5.41675 12.025 6.39175 13 7.58341 13C8.77506 13 9.75006 12.025 9.75006 10.8334C9.75006 10.5084 9.53341 10.2917 9.20841 10.2917Z" fill="#A7A7A7"/>
<path d="M10.8334 0H2.70837C1.78753 0 1.08337 0.704158 1.08337 1.625V10.2917C1.08337 10.6167 1.30003 10.8333 1.62503 10.8333C1.95003 10.8333 2.16669 10.6167 2.16669 10.2917V1.625C2.16669 1.3 2.38335 1.08334 2.70835 1.08334H8.93753C8.77503 1.40834 8.66669 1.7875 8.66669 2.16668V10.2917C8.66669 10.6167 8.88335 10.8333 9.20835 10.8333C9.53335 10.8333 9.75003 10.6167 9.75003 10.2917V2.16666C9.75003 1.57082 10.2375 1.08332 10.8334 1.08332C11.5375 1.08334 11.5375 0 10.8334 0Z" fill="#A7A7A7"/>
<path d="M7.58334 11.9167C6.9875 11.9167 6.5 11.4292 6.5 10.8333V10.2917C6.5 9.96666 6.28334 9.75 5.95834 9.75H0.541658C0.216658 9.75 0 9.96666 0 10.2917V10.8333C0 12.025 0.975 13 2.16666 13H7.58332C8.2875 13 8.2875 11.9167 7.58334 11.9167ZM2.16666 11.9167C1.57082 11.9167 1.08332 11.4292 1.08332 10.8333H5.41666C5.41666 11.2125 5.525 11.5917 5.6875 11.9167H2.16666Z" fill="#A7A7A7"/>
<path d="M4.875 2.70837H3.79166C3.46666 2.70837 3.25 2.92503 3.25 3.25003C3.25 3.57503 3.46666 3.79169 3.79166 3.79169H4.875C5.2 3.79169 5.41666 3.57503 5.41666 3.25003C5.41666 2.92503 5.2 2.70837 4.875 2.70837Z" fill="#A7A7A7"/>
<path d="M7.04163 4.875H5.95828C5.63328 4.875 5.41663 5.09166 5.41663 5.41666C5.41663 5.74166 5.63328 5.95832 5.95828 5.95832H7.04163C7.36663 5.95832 7.58328 5.74166 7.58328 5.41666C7.58331 5.09166 7.36663 4.875 7.04163 4.875Z" fill="#A7A7A7"/>
<path d="M7.04169 2.70837H6.50003C6.17503 2.70837 5.95837 2.92503 5.95837 3.25003C5.95837 3.57503 6.17503 3.79169 6.50003 3.79169H7.04169C7.36669 3.79169 7.58335 3.57503 7.58335 3.25003C7.58335 2.92503 7.36669 2.70837 7.04169 2.70837Z" fill="#A7A7A7"/>
<path d="M4.875 7.04163H3.79166C3.46666 7.04163 3.25 7.25828 3.25 7.58328C3.25 7.90828 3.46666 8.12494 3.79166 8.12494H4.875C5.2 8.12494 5.41666 7.90828 5.41666 7.58328C5.41666 7.25831 5.2 7.04163 4.875 7.04163Z" fill="#A7A7A7"/>
<path d="M7.04169 7.04163H6.50003C6.17503 7.04163 5.95837 7.25828 5.95837 7.58328C5.95837 7.90828 6.17503 8.12494 6.50003 8.12494H7.04169C7.36669 8.12494 7.58335 7.90828 7.58335 7.58328C7.58337 7.25831 7.36669 7.04163 7.04169 7.04163Z" fill="#A7A7A7"/>
<path d="M3.79166 4.875C3.46666 4.875 3.25 5.09166 3.25 5.41666C3.25 5.74166 3.46666 5.95832 3.79166 5.95832C4.11666 5.95832 4.33332 5.74166 4.33332 5.41666C4.33334 5.09166 4.11666 4.875 3.79166 4.875Z" fill="#A7A7A7"/>
</svg>
