<svg width="15" height="15" viewBox="0 0 15 15" fill="none" xmlns="http://www.w3.org/2000/svg">
<path d="M7.49639 0.445353C7.52524 0.583048 8.07692 3.2139 8.07692 4.21878C8.07692 5.751 7.07452 6.84377 5.59255 7.28323L6.05769 14.2588C6.08293 14.6602 5.6899 15 5.19231 15H2.88462C2.39062 15 1.99399 14.6631 2.01923 14.2588L2.48438 7.28323C0.998798 6.84377 0 5.74807 0 4.21878C0 3.21097 0.551683 0.583048 0.580529 0.445353C0.695913 -0.149372 2.21394 -0.158161 2.30769 0.47758V4.61429C2.35457 4.7139 2.85216 4.70804 2.88462 4.61429C2.9351 3.87308 3.16947 0.536173 3.17308 0.460002C3.29207 -0.149372 4.78486 -0.149372 4.90024 0.460002C4.90745 0.539103 5.13822 3.87308 5.1887 4.61429C5.22115 4.70804 5.72236 4.7139 5.76562 4.61429V0.47758C5.85937 -0.155231 7.38101 -0.149372 7.49639 0.445353ZM11.7945 8.81545L11.2536 14.2383C11.2103 14.6484 11.6106 15 12.1154 15H14.1346C14.6142 15 15 14.6865 15 14.2969V0.703165C15 0.316447 14.6142 4.18726e-05 14.1346 4.18726e-05C11.1599 4.18726e-05 6.15144 5.22952 11.7945 8.81545Z" fill="#A7A7A7"/>
</svg>
