<svg width="15" height="15" viewBox="0 0 15 15" fill="none" xmlns="http://www.w3.org/2000/svg">
<path d="M14.2284 5.79875C14.675 5.87906 15 6.26781 15 6.72156V8.27875C15 8.7325 14.675 9.12125 14.2284 9.20156L13.2991 9.36875C13.1975 9.68406 13.0687 9.98656 12.9197 10.2772L13.4603 11.0553C13.7194 11.4278 13.6744 11.9325 13.3534 12.2534L12.2525 13.3544C11.9316 13.6753 11.4269 13.7203 11.0544 13.4613L10.2762 12.9203C9.98562 13.0694 9.68313 13.1981 9.36813 13.2997L9.20094 14.2291C9.12094 14.675 8.73219 15 8.27844 15H6.72125C6.2675 15 5.87875 14.675 5.79844 14.2284L5.63125 13.2991C5.31594 13.1975 5.01344 13.0691 4.72313 12.9197L3.945 13.4606C3.5725 13.7197 3.06781 13.6747 2.74688 13.3537L1.64594 12.2528C1.325 11.9319 1.28 11.4275 1.53906 11.0547L2.07969 10.2766C1.93063 9.98594 1.80187 9.68344 1.70031 9.36813L0.770938 9.20094C0.325 9.12094 0 8.73219 0 8.27844V6.72125C0 6.2675 0.325 5.87875 0.771562 5.79844L1.70094 5.63125C1.8025 5.31594 1.93125 5.01344 2.08031 4.72281L1.53969 3.94469C1.28063 3.57219 1.32562 3.0675 1.64656 2.74656L2.7475 1.64563C3.06844 1.32469 3.57312 1.27969 3.94562 1.53875L4.72375 2.07969C5.01437 1.93063 5.31687 1.80187 5.63187 1.70031L5.79906 0.770938C5.87906 0.325 6.26781 0 6.72156 0H8.27875C8.7325 0 9.12125 0.325 9.20156 0.771562L9.36875 1.70094C9.68406 1.8025 9.98656 1.93094 10.2769 2.08031L11.055 1.53938C11.4275 1.28031 11.9322 1.32531 12.2531 1.64625L13.3541 2.74719C13.675 3.06813 13.72 3.5725 13.4609 3.94531L12.9203 4.72344C13.0694 5.01406 13.1981 5.31656 13.2997 5.63187L14.2284 5.79875ZM7.5 10.3125C9.05312 10.3125 10.3125 9.05344 10.3125 7.5C10.3125 5.94656 9.05312 4.6875 7.5 4.6875C5.94688 4.6875 4.6875 5.94656 4.6875 7.5C4.6875 9.05344 5.94688 10.3125 7.5 10.3125Z" fill="#A7A7A7"/>
</svg>
