<svg width="15" height="15" viewBox="0 0 15 15" fill="none" xmlns="http://www.w3.org/2000/svg">
<path d="M4.88241 5.46965e-06H10.1175C10.2919 -3.95304e-05 10.4255 -6.94874e-05 10.5424 0.0113605C11.3732 0.0926381 12.0533 0.592183 12.3417 1.26508H2.6582C2.94659 0.592183 3.62666 0.0926381 4.45752 0.0113605C4.57437 -6.94874e-05 4.70805 -3.95304e-05 4.88241 5.46965e-06Z" fill="#A7A7A7"/>
<path d="M3.2329 2.04236C2.18993 2.04236 1.33473 2.67217 1.04933 3.5077C1.04339 3.52512 1.03768 3.54263 1.03223 3.56022C1.33084 3.46979 1.64162 3.41071 1.95621 3.37038C2.7665 3.2665 3.7905 3.26655 4.98003 3.26662H5.06886H10.1491C11.3386 3.26655 12.3626 3.2665 13.1729 3.37038C13.4875 3.41071 13.7983 3.46979 14.0969 3.56022C14.0915 3.54263 14.0858 3.52512 14.0798 3.5077C13.7944 2.67217 12.9392 2.04236 11.8962 2.04236H3.2329Z" fill="#A7A7A7"/>
<path fill-rule="evenodd" clip-rule="evenodd" d="M5.0043 4.15662H9.99571C12.5268 4.15662 13.7924 4.15662 14.5033 4.89674C15.2141 5.63686 15.0469 6.78031 14.7124 9.06729L14.3951 11.2359C14.1328 13.0294 14.0017 13.9261 13.3288 14.4631C12.6559 15.0001 11.6634 15.0001 9.67846 15.0001H5.32152C3.33661 15.0001 2.34415 15.0001 1.67126 14.4631C0.998364 13.9261 0.867196 13.0294 0.604861 11.2359L0.287633 9.06729C-0.0468897 6.78031 -0.214147 5.63686 0.496741 4.89674C1.20763 4.15662 2.47319 4.15662 5.0043 4.15662ZM4.5 12.0002C4.5 11.6895 4.77983 11.4377 5.125 11.4377H9.87503C10.2202 11.4377 10.5 11.6895 10.5 12.0002C10.5 12.3109 10.2202 12.5627 9.87503 12.5627H5.125C4.77983 12.5627 4.5 12.3109 4.5 12.0002Z" fill="#A7A7A7"/>
</svg>
