<svg width="12" height="12" viewBox="0 0 12 12" fill="none" xmlns="http://www.w3.org/2000/svg">
<path fill-rule="evenodd" clip-rule="evenodd" d="M11.9041 0.390869C11.8337 0.119812 11.5616 -0.0474226 11.2876 0.0119638C4.51142 1.48049 1.34497 6.66187 0.0198048 11.3361C-0.0441597 11.5617 0.0504555 11.8023 0.251091 11.9241C0.343104 11.98 0.447049 12.0045 0.549135 11.9993C0.671801 11.4064 1.2033 10.9597 1.84142 10.9565L1.99224 10.815C2.20251 10.6177 2.21281 10.2875 2.01524 10.0776C1.90189 9.95704 1.74475 9.90231 1.59166 9.91478L1.61195 9.86219C1.62884 9.83834 1.64394 9.81278 1.65698 9.78554C1.76406 9.56193 1.88389 9.43452 2.00416 9.35386C2.12797 9.2708 2.28486 9.2155 2.49703 9.18544C2.71366 9.15482 2.96538 9.15325 3.26984 9.16369C3.36844 9.16708 3.47564 9.17188 3.58812 9.17694C3.80312 9.18664 4.0374 9.19718 4.26754 9.2001C4.99289 9.2095 5.83168 9.15038 6.70345 8.76639C7.57966 8.38046 8.44516 7.68619 9.26454 6.49621C9.39154 6.31173 9.38657 6.06688 9.2521 5.88766C9.23627 5.86664 9.21909 5.84702 9.20075 5.82897C9.747 5.52015 10.2269 5.1023 10.6228 4.63387C11.1527 4.00691 11.5506 3.27217 11.779 2.54049C12.0057 1.81431 12.0763 1.05421 11.9041 0.390869ZM3.30565 8.12084C3.0001 8.11041 2.6834 8.10832 2.3808 8.14818C3.98219 5.04063 6.6488 2.26923 10.9551 1.16282C10.9575 1.48406 10.901 1.84691 10.7815 2.22995C10.5947 2.82833 10.2646 3.4399 9.82437 3.96083C8.94136 5.00567 7.68932 5.6174 6.29569 5.19282C6.08699 5.12922 5.86067 5.20189 5.72813 5.37506C5.59564 5.54822 5.58488 5.78535 5.70112 5.96978C6.0373 6.50305 6.71557 6.86837 7.57736 6.90677C7.13299 7.34643 6.69744 7.62859 6.2818 7.81166C5.60646 8.10916 4.93915 8.16524 4.28103 8.15674C4.06493 8.15397 3.86494 8.1449 3.6627 8.13571C3.54562 8.13039 3.42779 8.12502 3.30565 8.12084Z" fill="#A7A7A7"/>
</svg>
