<svg width="15" height="15" viewBox="0 0 15 15" fill="none" xmlns="http://www.w3.org/2000/svg">
<path d="M13.4913 4.51916L12.3001 5.6655L9.90161 3.35742L11.0929 2.21107C11.4286 1.88794 11.8604 1.73407 12.2921 1.73407C12.7238 1.73407 13.1556 1.88794 13.4913 2.21107C14.1549 2.84964 14.1549 3.88059 13.4913 4.51916Z" fill="#A7A7A7"/>
<path d="M11.7402 6.21201L3.09759 14.5211C2.43401 15.1597 1.36268 15.1597 0.699102 14.5211C0.0355208 13.8825 0.0355208 12.8516 0.699102 12.213L9.34168 3.90393L11.7402 6.21201Z" fill="#A7A7A7"/>
<path d="M5.85672 1.44294L6.18451 0.373529C6.21649 0.273512 6.18451 0.165801 6.11255 0.0888652C6.0406 0.0119291 5.91268 -0.0188454 5.80875 0.0119291L4.69746 0.327367L3.58616 0.0119291C3.48222 -0.0188454 3.37029 0.0119291 3.29034 0.0811716C3.21039 0.158108 3.18641 0.265818 3.21839 0.365835L3.53819 1.44294L3.21039 2.51235C3.17841 2.61236 3.21039 2.72008 3.28235 2.79702C3.3623 2.87395 3.47423 2.89703 3.57816 2.86626L4.69746 2.55851L5.80875 2.87395C5.84073 2.88165 5.86472 2.88934 5.89669 2.88934C5.97664 2.88934 6.04859 2.85857 6.11255 2.80471C6.1925 2.72777 6.21649 2.62006 6.18451 2.52005L5.85672 1.44294Z" fill="#A7A7A7"/>
<path d="M2.65873 6.05909L2.98652 4.98967C3.0185 4.88965 2.98652 4.78195 2.91456 4.70501C2.83461 4.62808 2.72269 4.605 2.61875 4.63577L1.49946 4.94352L0.388151 4.62808C0.284217 4.5973 0.172295 4.62808 0.0923458 4.69732C0.0123963 4.77426 -0.0115885 4.88197 0.0203913 4.98198L0.340189 6.05909L0.0123963 7.12849C-0.0195835 7.22851 0.0123963 7.33622 0.0843508 7.41316C0.1643 7.49009 0.276222 7.51318 0.380156 7.4824L1.49145 7.16696L2.60276 7.4824C2.62675 7.49009 2.65873 7.49009 2.6907 7.49009C2.77065 7.49009 2.84261 7.45932 2.90657 7.40546C2.98652 7.32853 3.0105 7.22082 2.97852 7.1208L2.65873 6.05909Z" fill="#A7A7A7"/>
<path d="M14.6505 9.9055L14.9783 8.83609C15.0103 8.73607 14.9783 8.62836 14.9064 8.55143C14.8264 8.47449 14.7145 8.45141 14.6105 8.48218L13.4992 8.79762L12.3879 8.48218C12.284 8.45141 12.1721 8.48218 12.0921 8.55143C12.0122 8.62836 11.9882 8.73607 12.0202 8.83609L12.348 9.9055L12.0202 10.9749C11.9882 11.0749 12.0202 11.1826 12.0921 11.2596C12.1721 11.3365 12.284 11.3596 12.3879 11.3288L13.4992 11.0134L14.6105 11.3288C14.6345 11.3365 14.6665 11.3365 14.6985 11.3365C14.7784 11.3365 14.8504 11.3057 14.9143 11.2519C14.9943 11.1749 15.0183 11.0672 14.9863 10.9672L14.6505 9.9055Z" fill="#A7A7A7"/>
</svg>
