<svg width="17" height="10" viewBox="0 0 17 10" fill="none" xmlns="http://www.w3.org/2000/svg">
<path d="M10.9575 4.49496C10.6808 4.21603 10.2324 4.21603 9.9558 4.49496C9.67912 4.77389 9.67912 5.22618 9.9558 5.50511C10.2324 5.78403 10.6808 5.78403 10.9575 5.50511C11.2341 5.22618 11.2341 4.77389 10.9575 4.49496Z" fill="#A7A7A7"/>
<path d="M11.4584 2.97966C11.735 2.70071 12.1836 2.70071 12.4602 2.97966C12.7368 3.2586 12.7368 3.71083 12.4602 3.98983C12.1836 4.26876 11.735 4.26876 11.4584 3.98983C11.1818 3.71083 11.1818 3.2586 11.4584 2.97966Z" fill="#A7A7A7"/>
<path d="M13.9627 4.49496C13.6861 4.21603 13.2377 4.21603 12.961 4.49496C12.6844 4.77389 12.6844 5.22618 12.961 5.50511C13.2377 5.78403 13.6861 5.78403 13.9627 5.50511C14.2394 5.22618 14.2394 4.77389 13.9627 4.49496Z" fill="#A7A7A7"/>
<path d="M11.4584 6.0101C11.735 5.73117 12.1836 5.73117 12.4602 6.0101C12.7368 6.2891 12.7368 6.74131 12.4602 7.02024C12.1836 7.29924 11.735 7.29924 11.4584 7.02024C11.1818 6.74131 11.1818 6.2891 11.4584 6.0101Z" fill="#A7A7A7"/>
<path d="M4.25004 5.71426H2.83337V4.28569H4.25004V2.85712H5.66671V4.28569H7.08337V5.71426H5.66671V7.14283H4.25004V5.71426Z" fill="#A7A7A7"/>
<path fill-rule="evenodd" clip-rule="evenodd" d="M4.95833 0C2.21992 0 0 2.23858 0 5C0 7.76143 2.21992 10 4.95833 10H12.0417C14.7801 10 17 7.76143 17 5C17 2.23858 14.7801 0 12.0417 0H4.95833ZM12.0417 1.42857H4.95833C3.00233 1.42857 1.41667 3.02756 1.41667 5C1.41667 6.97243 3.00233 8.57143 4.95833 8.57143H12.0417C13.9977 8.57143 15.5833 6.97243 15.5833 5C15.5833 3.02756 13.9977 1.42857 12.0417 1.42857Z" fill="#A7A7A7"/>
</svg>
