<svg width="16" height="16" viewBox="0 0 16 16" fill="none" xmlns="http://www.w3.org/2000/svg">
<path d="M14.6558 10.955C14.6276 10.9133 14.5957 10.8537 14.5642 10.7805C14.5088 10.6517 14.455 10.481 14.4087 10.2824C14.3383 9.98434 14.284 9.62309 14.2478 9.23222C14.2115 8.84159 14.1929 8.42066 14.1934 7.99997C14.1929 7.24428 14.2531 6.48647 14.3677 5.90619C14.4247 5.61691 14.4961 5.37141 14.5712 5.20284C14.6085 5.11878 14.6463 5.05462 14.6761 5.01628C14.6905 4.99709 14.7028 4.98456 14.7097 4.97841L14.715 4.97391L16 4.31484L15.5909 3.68509L14.3059 4.34419C14.3048 4.34466 14.2963 4.34728 14.2787 4.34963C14.2601 4.3525 14.2329 4.35463 14.1983 4.35463C14.1364 4.35463 14.0528 4.34775 13.9537 4.33213C13.7678 4.30275 13.5308 4.24334 13.2654 4.15881C12.8003 4.01088 12.2484 3.78691 11.689 3.52413C10.8499 3.13041 9.99059 2.64722 9.35716 2.20544C9.04071 1.98528 8.78129 1.77409 8.61504 1.602C8.53143 1.51653 8.47229 1.44075 8.44085 1.38725C8.42486 1.36072 8.41582 1.34016 8.41209 1.32831C8.40998 1.32288 8.40942 1.31953 8.40889 1.31834V0H7.59058V1.31862C7.59002 1.32219 7.58313 1.348 7.55862 1.38778C7.53464 1.42803 7.49522 1.48081 7.44195 1.54069C7.34181 1.65316 7.19315 1.7895 7.00883 1.93488C6.68598 2.19006 6.2555 2.47512 5.77762 2.754C5.06159 3.17303 4.23797 3.58094 3.50015 3.87925C3.13148 4.02841 2.78412 4.15031 2.48739 4.23247C2.33929 4.27369 2.20395 4.30494 2.08676 4.32528C1.9701 4.34562 1.87154 4.35484 1.80125 4.35463C1.75916 4.35463 1.72769 4.35131 1.71015 4.348C1.70107 4.34634 1.69577 4.34494 1.69362 4.34422L0.409174 3.68513L3.51421e-05 4.31488L1.28448 4.97394C1.28772 4.97563 1.31324 4.99831 1.34415 5.04497C1.37186 5.08662 1.40382 5.14606 1.43578 5.21944C1.4912 5.34825 1.54499 5.51894 1.59134 5.71756C1.66113 6.01563 1.71546 6.37691 1.75171 6.76778C1.78849 7.15841 1.80659 7.57931 1.80659 8.00003C1.80659 8.75572 1.74693 9.5135 1.63184 10.0935C1.57485 10.3831 1.50343 10.6286 1.42833 10.7971C1.39106 10.881 1.35322 10.9453 1.3239 10.9837C1.30899 11.0026 1.29672 11.0154 1.28979 11.0216L1.28445 11.0261L0 11.6851L0.409139 12.3149L1.69359 11.6556C1.69893 11.6534 1.73729 11.6449 1.80121 11.6454C1.86299 11.6451 1.94717 11.6522 2.04573 11.6678C2.23166 11.697 2.46925 11.7567 2.73454 11.8412C3.19962 11.9891 3.75102 12.2128 4.3104 12.4756C5.1495 12.8696 6.00934 13.3525 6.64224 13.7945C6.95869 14.0147 7.21868 14.2258 7.38492 14.398C7.46804 14.4834 7.52718 14.5592 7.55858 14.6124C7.57458 14.6392 7.58415 14.6598 7.58787 14.6716C7.58949 14.6766 7.58998 14.6797 7.59055 14.6811V16H8.40886V14.6818C8.40886 14.6794 8.41631 14.6532 8.44135 14.612C8.4648 14.5719 8.50421 14.5192 8.55748 14.4593C8.65762 14.3466 8.80681 14.2105 8.99113 14.0651C9.31398 13.8099 9.74446 13.5248 10.2218 13.2457C10.9378 12.8267 11.762 12.4188 12.4998 12.1205C12.868 11.9713 13.2153 11.8496 13.512 11.7673C13.6601 11.7261 13.796 11.6948 13.9127 11.6747C14.0293 11.6541 14.1279 11.6451 14.1982 11.6453C14.2403 11.6451 14.2717 11.6484 14.2899 11.6517C14.2984 11.6534 14.3032 11.6548 14.3058 11.6555L15.5908 12.3148L16 11.6851L14.7155 11.026C14.7123 11.0246 14.6868 11.0021 14.6558 10.955ZM2.38451 10.4614C2.45912 10.151 2.51506 9.79947 2.55448 9.42234C2.60138 8.97159 2.6248 8.48578 2.6248 8C2.62427 7.20975 2.56404 6.42163 2.43781 5.78078C2.42129 5.69744 2.40371 5.61672 2.38507 5.53881L4.26726 6.5045C4.27204 6.51184 4.27792 6.52178 4.28375 6.53456C4.30773 6.58144 4.33758 6.66172 4.36262 6.76137C4.40151 6.91144 4.43351 7.10559 4.45425 7.31913C4.47503 7.53291 4.48621 7.76631 4.48621 8C4.48621 8.39747 4.45425 8.79709 4.39511 9.09469C4.36635 9.24262 4.3296 9.36553 4.29602 9.43962C4.28481 9.46497 4.27472 9.48369 4.26726 9.4955L2.38451 10.4614ZM10.7609 8.99694L8.818 8L10.7609 7.00284C10.7508 7.07388 10.7417 7.14631 10.7337 7.22087C10.7076 7.46897 10.6954 7.73438 10.6954 8C10.6954 8.34587 10.7167 8.68963 10.7609 8.99694ZM5.23842 8.99694C5.24855 8.92591 5.25815 8.85369 5.2656 8.77891C5.29169 8.53103 5.30449 8.26566 5.30449 8.00003C5.304 7.65416 5.28265 7.31037 5.23842 7.00287L7.18137 8L5.23842 8.99694ZM8.40886 7.37025V5.37641C8.509 5.44412 8.61448 5.51159 8.72531 5.57884C9.14672 5.83403 9.6342 6.08144 10.0897 6.27034C10.1792 6.30728 10.266 6.34112 10.3523 6.37309L8.40886 7.37025ZM7.59055 7.37025L5.64759 6.37334C5.86229 6.29356 6.08659 6.19791 6.31352 6.09163C6.76636 5.87881 7.22082 5.62594 7.59055 5.37594V7.37025ZM7.59055 8.62972V10.6233C7.4909 10.5558 7.38492 10.4884 7.27409 10.4212C6.85272 10.1659 6.36524 9.91853 5.90976 9.72941C5.82076 9.69272 5.73342 9.65884 5.64763 9.62691L7.59055 8.62972ZM8.40886 8.62972L10.3518 9.62663C10.1376 9.70619 9.91282 9.80181 9.68638 9.90812C9.23301 10.1212 8.77858 10.3738 8.40886 10.624V8.62972ZM11.7321 9.49525C11.7279 9.48816 11.722 9.47819 11.7156 9.46544C11.6916 9.41831 11.6623 9.33806 11.6368 9.23841C11.5979 9.08853 11.5665 8.89441 11.5451 8.68087C11.5244 8.46706 11.5137 8.23344 11.5137 8C11.5131 7.60225 11.5456 7.20262 11.6043 6.90528C11.633 6.75734 11.6703 6.63447 11.7033 6.56034C11.7145 6.535 11.7252 6.51628 11.7321 6.50447L13.6148 5.53856C13.5402 5.84894 13.4843 6.20025 13.4449 6.57762C13.398 7.02837 13.3751 7.51394 13.3746 7.99997C13.3751 8.78997 13.4353 9.57809 13.5616 10.2192C13.5781 10.3025 13.5957 10.383 13.6148 10.4611L11.7321 9.49525ZM9.70076 3.31959C10.4589 3.76797 11.3251 4.20053 12.1232 4.52603C12.5052 4.68156 12.8706 4.81222 13.2057 4.90884L11.3235 5.87475C11.3043 5.8745 11.2713 5.87212 11.2287 5.86528C11.144 5.85225 11.0252 5.82291 10.8899 5.77959C10.6523 5.70409 10.3625 5.58691 10.0684 5.44859C9.62727 5.24169 9.17284 4.986 8.84521 4.75734C8.68167 4.64369 8.55007 4.5355 8.47334 4.45597C8.44085 4.42259 8.41951 4.39512 8.40889 4.3795V2.44719C8.76367 2.73175 9.2085 3.02841 9.70076 3.31959ZM3.01049 4.8435C3.52669 4.67872 4.10633 4.44247 4.69289 4.16738C5.57193 3.75425 6.46112 3.25591 7.1473 2.77769C7.30711 2.66619 7.45524 2.55609 7.59055 2.44744V4.3795C7.58415 4.38875 7.57458 4.40175 7.56126 4.41784C7.52131 4.46472 7.45099 4.53147 7.35989 4.60441C7.19951 4.73322 6.97522 4.88353 6.72375 5.03147C6.34657 5.25356 5.90652 5.47228 5.51655 5.63044C5.32211 5.70975 5.1399 5.77391 4.98856 5.81581C4.91346 5.83688 4.84581 5.85253 4.79092 5.86197C4.73871 5.87122 4.69824 5.87453 4.67637 5.87478L2.79417 4.90887C2.86506 4.8885 2.93696 4.86672 3.01049 4.8435ZM6.29914 12.6804C5.54053 12.232 4.67426 11.7994 3.8762 11.4739C3.49477 11.3182 3.1293 11.1875 2.79365 11.0911L4.6764 10.1252C4.69556 10.1252 4.72862 10.1276 4.7707 10.1345C4.85541 10.1477 4.97422 10.1771 5.10955 10.2202C5.34767 10.2959 5.63698 10.4131 5.93103 10.5511C6.37217 10.758 6.82659 11.014 7.15423 11.2426C7.31776 11.3563 7.44937 11.4645 7.52609 11.544C7.55858 11.5774 7.57989 11.6048 7.59055 11.6205V13.5525C7.23573 13.2682 6.79087 12.9713 6.29914 12.6804ZM12.9894 11.1565C12.4727 11.321 11.893 11.5575 11.307 11.8326C10.428 12.2458 9.53828 12.7441 8.8521 13.2223C8.69282 13.3338 8.54469 13.4437 8.40886 13.5526V11.6205C8.41526 11.611 8.42482 11.598 8.43871 11.5822C8.47813 11.5353 8.54845 11.4685 8.64004 11.3956C8.79989 11.2666 9.02471 11.1163 9.27562 10.9685C9.6528 10.7465 10.0928 10.5277 10.4829 10.3693C10.6773 10.29 10.86 10.2261 11.0108 10.184C11.0859 10.1631 11.1536 10.1475 11.2085 10.138C11.2607 10.1286 11.3012 10.1252 11.323 10.1252L13.2052 11.0909C13.1349 11.1113 13.0624 11.1333 12.9894 11.1565Z" fill="#A7A7A7"/>
</svg>
