<svg width="13" height="14" viewBox="0 0 13 14" fill="none" xmlns="http://www.w3.org/2000/svg">
<path d="M3.7299 5.81519C2.95598 5.81519 2.32642 6.32619 2.32642 6.95436C2.32642 7.58266 2.95598 8.09358 3.7299 8.09358C4.50368 8.09358 5.13339 7.58266 5.13339 6.95436C5.13339 6.32619 4.50343 5.81519 3.7299 5.81519ZM3.7299 7.44258C3.39836 7.44258 3.12841 7.2237 3.12841 6.95436C3.12841 6.68506 3.39836 6.46618 3.7299 6.46618C4.06134 6.46618 4.3314 6.68506 4.3314 6.95436C4.33135 7.22366 4.06129 7.44258 3.7299 7.44258Z" fill="#A7A7A7"/>
<path d="M8.86552 5.81079C8.09145 5.81079 7.46204 6.32179 7.46204 6.94988C7.46204 7.57818 8.09145 8.08906 8.86552 8.08906C9.63959 8.08906 10.2691 7.57818 10.2691 6.94988C10.2691 6.32179 9.63905 5.81079 8.86552 5.81079ZM8.86552 7.4381C8.53398 7.4381 8.26408 7.21919 8.26408 6.94988C8.26408 6.68066 8.53398 6.46179 8.86552 6.46179C9.19682 6.46179 9.46702 6.68066 9.46702 6.94988C9.46707 7.21919 9.19686 7.4381 8.86552 7.4381Z" fill="#A7A7A7"/>
<path d="M13 2.23596C13 1.00304 11.7641 0 10.2452 0C9.38004 0 8.58904 0.321541 8.06953 0.869631C7.01659 0.598198 5.90658 0.573606 4.8528 0.790149C4.3321 0.292609 3.56807 0 2.75514 0C1.23611 0 0.000247393 1.00304 0.000247393 2.23596C0.000247393 2.81921 0.279856 3.373 0.774467 3.78813C0.541048 4.3093 0.4156 4.85409 0.4156 5.41375C0.4156 6.68979 1.03259 8.82585 2.07152 10.648H0.400996C0.179607 10.648 0 10.7938 0 10.9735C0 11.1536 0.179607 11.299 0.400996 11.299H2.47058C2.55855 11.4325 2.6489 11.563 2.74173 11.6903L1.08002 12.1829C0.871944 12.2446 0.764764 12.4317 0.840755 12.6004C0.90041 12.7322 1.05383 12.8142 1.21735 12.8142C1.26314 12.8142 1.30962 12.8081 1.35502 12.7943L3.18302 12.2523C4.07066 13.2891 5.12978 14 6.29663 14C7.46804 14 8.53003 13.284 9.42029 12.2406L11.6592 12.7996C11.6984 12.8094 11.7381 12.8142 11.7772 12.8142C11.9485 12.8142 12.1072 12.7242 12.1605 12.5843C12.2252 12.4122 12.1067 12.2304 11.895 12.1774L9.86614 11.671C9.95441 11.549 10.0406 11.4237 10.1246 11.2964H12.1928C12.4142 11.2964 12.5938 11.1508 12.5938 10.9709C12.5938 10.7912 12.4142 10.6454 12.1928 10.6454H10.5235C11.5618 8.82348 12.1779 6.68911 12.1779 5.41371C12.1779 4.94225 12.0839 4.47264 11.9087 4.01323C12.5883 3.59316 13 2.93469 13 2.23596ZM2.75539 0.651158C3.21693 0.651158 3.65699 0.783479 4.00382 1.01762C3.99872 1.01931 3.99442 1.02156 3.98932 1.02305C3.8559 1.06922 3.7258 1.11977 3.59743 1.17337C3.56639 1.18639 3.53595 1.19985 3.50486 1.21331C3.3852 1.26567 3.26688 1.32076 3.15228 1.37955C3.14287 1.38433 3.13297 1.38867 3.12366 1.39365C3.00148 1.45702 2.88391 1.52493 2.76811 1.59517C2.74029 1.61192 2.71331 1.62884 2.68598 1.64604C2.45613 1.79118 2.23984 1.94982 2.03879 2.12124C2.01558 2.14097 1.99285 2.16074 1.97013 2.18067C1.87171 2.26746 1.77577 2.35667 1.68567 2.44945C1.67968 2.4556 1.67443 2.46186 1.66844 2.46789C1.58344 2.55625 1.50304 2.64759 1.42552 2.74093C1.4071 2.76307 1.38859 2.78501 1.37071 2.80743C1.29136 2.90685 1.21512 3.00823 1.14423 3.11282C1.14215 3.11612 1.13937 3.11917 1.13729 3.12234C0.921004 2.86329 0.802586 2.55561 0.802586 2.23576C0.802785 1.36219 1.67874 0.651158 2.75539 0.651158ZM9.53698 10.7874C9.51896 10.8088 9.5046 10.8328 9.49312 10.8573C9.31376 11.1398 9.12499 11.4078 8.92845 11.6574C8.91281 11.674 8.8992 11.6916 8.88746 11.7106C8.10948 12.6826 7.21372 13.3492 6.29757 13.3492C5.37979 13.3492 4.48319 12.6805 3.70466 11.7066C3.69421 11.6903 3.68223 11.675 3.66892 11.6608C3.4708 11.4091 3.2802 11.1387 3.09916 10.8537C3.09198 10.8391 3.08257 10.8255 3.07307 10.8119C1.96468 9.04891 1.21834 6.7798 1.21834 5.41387C1.21834 4.86357 1.35032 4.32874 1.61126 3.82357C2.19687 2.68689 3.3654 1.82911 4.81597 1.47068C5.29761 1.3517 5.79603 1.29123 6.29752 1.29123C6.90303 1.29123 7.50512 1.38168 8.08676 1.5596C8.43216 1.66533 8.75875 1.8001 9.06207 1.96018C9.97372 2.44077 10.6786 3.15071 11.0608 3.99423C11.0608 3.99423 11.0611 3.99443 11.0611 3.99467C11.2702 4.45817 11.3767 4.9357 11.3767 5.41395C11.3767 6.77337 10.6373 9.02777 9.53698 10.7874ZM11.607 3.36951C11.6022 3.36123 11.596 3.35339 11.5913 3.34524C11.5276 3.23783 11.4592 3.13267 11.3861 3.02992C11.3727 3.01152 11.3589 2.99348 11.3459 2.97528C11.2769 2.88129 11.2046 2.78943 11.1283 2.70011C11.1169 2.68664 11.1062 2.67278 11.0944 2.65932C11.0106 2.56292 10.9213 2.46966 10.8289 2.37897C10.8091 2.35916 10.7887 2.33967 10.7678 2.32018C10.672 2.22905 10.5733 2.13964 10.4697 2.05477C10.3663 1.96991 10.2575 1.8897 10.1463 1.81131C10.1215 1.79415 10.0975 1.77679 10.0727 1.76016C9.96228 1.68501 9.84891 1.61257 9.73198 1.54401C9.71371 1.53321 9.69436 1.52312 9.67555 1.51255C9.56881 1.45131 9.45861 1.39345 9.34658 1.33816C9.32262 1.32618 9.29856 1.31381 9.27455 1.30216C9.14974 1.24281 9.02237 1.18731 8.89187 1.13528C8.88088 1.13074 8.87043 1.12523 8.85949 1.12101C9.22133 0.821934 9.71426 0.650997 10.2458 0.650997C11.3224 0.650997 12.1985 1.36203 12.1985 2.236C12.198 2.66515 11.9792 3.07425 11.607 3.36951Z" fill="#A7A7A7"/>
<path d="M6.29752 11.5666C7.16204 11.5666 7.86274 11.7859 7.86274 12.0561C7.86274 12.3265 7.16204 12.5458 6.29752 12.5458C5.433 12.5458 4.7323 12.3265 4.7323 12.0561C4.73235 11.7859 5.433 11.5666 6.29752 11.5666Z" fill="#A7A7A7"/>
</svg>
