<svg width="15" height="14" viewBox="0 0 15 14" fill="none" xmlns="http://www.w3.org/2000/svg">
<path d="M8.04841 7.2776L2.52063 10.8645C2.4755 10.8937 2.42307 10.9105 2.36893 10.913C2.31478 10.9156 2.26095 10.9037 2.21316 10.8788C2.16537 10.8539 2.12542 10.8169 2.09755 10.7716C2.06969 10.7264 2.05496 10.6746 2.05493 10.6219V2.37819C2.05496 2.32543 2.06969 2.27367 2.09755 2.22841C2.12542 2.18316 2.16537 2.14611 2.21316 2.1212C2.26095 2.0963 2.31478 2.08448 2.36893 2.087C2.42307 2.08952 2.4755 2.10629 2.52063 2.13552L8.04841 5.72244V2.37819C8.04844 2.32543 8.06317 2.27367 8.09104 2.22841C8.1189 2.18316 8.15885 2.14611 8.20664 2.1212C8.25443 2.0963 8.30826 2.08448 8.36241 2.087C8.41655 2.08952 8.46898 2.10629 8.51411 2.13552L14.8666 6.25735C14.9076 6.28399 14.9413 6.32007 14.9646 6.36241C14.9878 6.40474 15 6.45201 15 6.50002C15 6.54803 14.9878 6.5953 14.9646 6.63763C14.9413 6.67996 14.9076 6.71605 14.8666 6.74269L8.51411 10.8645C8.46898 10.8937 8.41655 10.9105 8.36241 10.913C8.30826 10.9156 8.25443 10.9037 8.20664 10.8788C8.15885 10.8539 8.1189 10.8169 8.09104 10.7716C8.06317 10.7264 8.04844 10.6746 8.04841 10.6219V7.2776Z" fill="#A7A7A7"/>
</svg>
