<svg width="13" height="13" viewBox="0 0 13 13" fill="none" xmlns="http://www.w3.org/2000/svg">
<path d="M12.8 4.8136C12.8 5.5792 12.1792 6.2 11.4136 6.2H1.3864C0.6208 6.2 0 5.5792 0 4.8136V1.3864C0 0.6208 0.6208 0 1.3864 0H11.4138C12.1794 0 12.8002 0.6208 12.8002 1.3864L12.8 4.8136ZM12 1.3864C12 1.0626 11.7374 0.8 11.4136 0.8H1.3864C1.0626 0.8 0.8 1.0626 0.8 1.3864V4.8138C0.8 5.1376 1.0626 5.4002 1.3864 5.4002H11.4138C11.7376 5.4002 12.0002 5.1376 12.0002 4.8138L12 1.3864Z" fill="#A7A7A7"/>
<path d="M8.6 11.6136C8.6 12.3792 7.9792 13 7.2136 13H1.3864C0.6208 13 0 12.3792 0 11.6136V8.18639C0 7.42079 0.6208 6.79999 1.3864 6.79999H7.2138C7.9794 6.79999 8.6002 7.42079 8.6002 8.18639L8.6 11.6136ZM7.8 8.18639C7.8 7.86259 7.5374 7.59999 7.2136 7.59999H1.3864C1.0626 7.59999 0.8 7.86259 0.8 8.18639V11.6138C0.8 11.9376 1.0626 12.2002 1.3864 12.2002H7.2138C7.5376 12.2002 7.8002 11.9376 7.8002 11.6138L7.8 8.18639Z" fill="#A7A7A7"/>
<path d="M13 11.6136C13 12.3792 12.3792 13 11.6136 13H10.5862C9.82063 13 9.19983 12.3792 9.19983 11.6136V8.18639C9.19983 7.42079 9.82063 6.79999 10.5862 6.79999H11.6136C12.3792 6.79999 13 7.42079 13 8.18639V11.6136ZM12.2 8.18639C12.2 7.86259 11.9374 7.59999 11.6136 7.59999H10.5862C10.2624 7.59999 9.99983 7.86259 9.99983 8.18639V11.6138C9.99983 11.9376 10.2624 12.2002 10.5862 12.2002H11.6136C11.9374 12.2002 12.2 11.9376 12.2 11.6138V8.18639Z" fill="#A7A7A7"/>
</svg>
