<svg width="19" height="13" viewBox="0 0 19 13" fill="none" xmlns="http://www.w3.org/2000/svg">
<path d="M0.632102 10V2.72727H3.50142C4.05066 2.72727 4.51941 2.82552 4.90767 3.02202C5.2983 3.21615 5.59541 3.49195 5.79901 3.84943C6.00497 4.20455 6.10795 4.6224 6.10795 5.10298C6.10795 5.58594 6.00379 6.00142 5.79545 6.34943C5.58712 6.69508 5.28527 6.96023 4.88991 7.14489C4.49692 7.32955 4.02107 7.42188 3.46236 7.42188H1.54119V6.18608H3.21378C3.50734 6.18608 3.75118 6.14583 3.94531 6.06534C4.13944 5.98485 4.28385 5.86411 4.37855 5.70312C4.47562 5.54214 4.52415 5.34209 4.52415 5.10298C4.52415 4.86151 4.47562 4.65791 4.37855 4.49219C4.28385 4.32647 4.13826 4.20099 3.94176 4.11577C3.74763 4.02817 3.5026 3.98438 3.20668 3.98438H2.16974V10H0.632102ZM4.55966 6.69034L6.36719 10H4.66974L2.90128 6.69034H4.55966ZM7.1946 2.72727H9.09091L11.0938 7.61364H11.179L13.1818 2.72727H15.0781V10H13.5866V5.26634H13.5263L11.6442 9.96449H10.6286L8.74645 5.24858H8.68608V10H7.1946V2.72727Z" fill="#A7A7A7"/>
</svg>
