<svg width="13" height="13" viewBox="0 0 13 13" fill="none" xmlns="http://www.w3.org/2000/svg">
<path d="M12.35 2.68966H11.3587C11.2721 2.68966 11.199 2.72047 11.1394 2.78211C11.0798 2.84375 11.05 2.9194 11.05 3.00905V7.1444C11.05 7.58147 10.8983 7.9569 10.595 8.27069C10.2917 8.58448 9.92333 8.74138 9.49 8.74138H2.90875C2.82208 8.74138 2.74896 8.7722 2.68937 8.83384C2.62979 8.89547 2.6 8.97112 2.6 9.06078V10.0862C2.6 10.2767 2.66229 10.4364 2.78687 10.5653C2.91146 10.6942 3.06583 10.7586 3.25 10.7586H9.99375C10.2646 10.7586 10.4975 10.8595 10.6925 11.0612L12.48 12.9103C12.5233 12.9552 12.5748 12.9832 12.6344 12.9944C12.694 13.0056 12.7535 13 12.8131 12.9776C12.8727 12.9552 12.9187 12.9159 12.9512 12.8599C12.9837 12.8039 13 12.7422 13 12.675V3.36207C13 3.17155 12.9377 3.01185 12.8131 2.88297C12.6885 2.75409 12.5342 2.68966 12.35 2.68966ZM9.75 6.72414V0.672414C9.75 0.481897 9.68771 0.322198 9.56312 0.193319C9.43854 0.0644397 9.28417 0 9.1 0H0.65C0.465833 0 0.311458 0.0644397 0.186875 0.193319C0.0622917 0.322198 0 0.481897 0 0.672414V9.31293C0 9.38017 0.01625 9.44181 0.04875 9.49784C0.08125 9.55388 0.127292 9.5931 0.186875 9.61552C0.246458 9.63793 0.306042 9.64353 0.365625 9.63233C0.425208 9.62112 0.476667 9.5931 0.52 9.54828L2.3075 7.69914C2.5025 7.49741 2.73542 7.39655 3.00625 7.39655H9.1C9.28417 7.39655 9.43854 7.32931 9.56312 7.19483C9.68771 7.06034 9.75 6.90345 9.75 6.72414Z" fill="#A7A7A7"/>
</svg>
