<svg width="12" height="13" viewBox="0 0 12 13" fill="none" xmlns="http://www.w3.org/2000/svg">
<path d="M9.74918 8.91998H2.25082C1.56001 8.91998 1 9.37964 1 9.94665V10.9733C1 11.5403 1.56001 12 2.25082 12H9.74918C10.44 12 11 11.5403 11 10.9733V9.94665C11 9.37964 10.44 8.91998 9.74918 8.91998Z" stroke="#A7A7A7" stroke-width="1.3" stroke-miterlimit="10"/>
<path d="M11 10.02V2.00281C11 1.73685 10.8683 1.48178 10.6339 1.29371C10.3995 1.10565 10.0815 1 9.75 1H2.25C1.91848 1 1.60054 1.10565 1.36612 1.29371C1.1317 1.48178 1 1.73685 1 2.00281V10.02" stroke="#A7A7A7" stroke-width="1.3" stroke-miterlimit="10"/>
<path d="M7.57141 10.46H9.85713" stroke="#A7A7A7" stroke-width="1.3" stroke-miterlimit="10"/>
<path d="M2.71425 11.12C3.02984 11.12 3.28568 10.8738 3.28568 10.57C3.28568 10.2663 3.02984 10.02 2.71425 10.02C2.39866 10.02 2.14282 10.2663 2.14282 10.57C2.14282 10.8738 2.39866 11.12 2.71425 11.12Z" fill="#A7A7A7"/>
</svg>
