<svg width="13" height="13" viewBox="0 0 13 13" fill="none" xmlns="http://www.w3.org/2000/svg">
<path d="M10.6241 8.92001H2.3759C1.61601 8.92001 1 9.37967 1 9.94668V10.9733C1 11.5404 1.61601 12 2.3759 12H10.6241C11.384 12 12 11.5404 12 10.9733V9.94668C12 9.37967 11.384 8.92001 10.6241 8.92001Z" stroke="#A7A7A7" stroke-width="1.3" stroke-miterlimit="10"/>
<path d="M12 10.02V2.00281C12 1.73685 11.8551 1.48178 11.5973 1.29371C11.3394 1.10565 10.9897 1 10.625 1H2.375C2.01033 1 1.66059 1.10565 1.40273 1.29371C1.14487 1.48178 1 1.73685 1 2.00281V10.02" stroke="#A7A7A7" stroke-width="1.3" stroke-miterlimit="10"/>
<path d="M8.22864 10.46H10.7429" stroke="#A7A7A7" stroke-width="1.3" stroke-miterlimit="10"/>
<path d="M2.88577 11.12C3.23292 11.12 3.51435 10.8737 3.51435 10.57C3.51435 10.2662 3.23292 10.02 2.88577 10.02C2.53862 10.02 2.2572 10.2662 2.2572 10.57C2.2572 10.8737 2.53862 11.12 2.88577 11.12Z" fill="#A7A7A7"/>
</svg>
