<svg width="13" height="13" viewBox="0 0 13 13" fill="none" xmlns="http://www.w3.org/2000/svg">
<path d="M6.5 5.40406L1.05191 3.41733M6.5 5.40406L11.9498 3.42389M6.5 5.40406V12M2.30471 10.574L5.84917 11.8421C6.09037 11.9283 6.21094 11.9715 6.33463 11.9886C6.44439 12.0038 6.55561 12.0038 6.66537 11.9886C6.78906 11.9715 6.90963 11.9283 7.15083 11.8421L10.6953 10.574C11.165 10.406 11.3999 10.322 11.5733 10.1713C11.7264 10.0382 11.8447 9.8688 11.9176 9.67814C12 9.46226 12 9.20978 12 8.70482V4.29514C12 3.7902 12 3.53774 11.9176 3.32187C11.8447 3.13121 11.7264 2.96178 11.5733 2.82871C11.3999 2.67804 11.165 2.59401 10.6953 2.42596L7.15083 1.15794C6.90963 1.07166 6.78906 1.02851 6.66537 1.01139C6.55561 0.996203 6.44439 0.996203 6.33463 1.01139C6.21094 1.02851 6.09037 1.07166 5.84917 1.15794L2.30471 2.42596C1.83496 2.59401 1.60008 2.67804 1.4267 2.82871C1.27357 2.96178 1.15531 3.13121 1.08247 3.32187C1 3.53774 1 3.7902 1 4.29514V8.70482C1 9.20978 1 9.46226 1.08247 9.67814C1.15531 9.8688 1.27357 10.0382 1.4267 10.1713C1.60008 10.322 1.83496 10.406 2.30471 10.574Z" stroke="#A7A7A7" stroke-width="1.5" stroke-linecap="round" stroke-linejoin="round"/>
</svg>
