<svg width="14" height="15" viewBox="0 0 14 15" fill="none" xmlns="http://www.w3.org/2000/svg">
<path d="M7 6.20479L1.05663 3.85684M7 6.20479L12.9452 3.8646M7 6.20479V13.9999M2.42332 12.3148L6.29 13.8133C6.55313 13.9153 6.68467 13.9663 6.8196 13.9865C6.93933 14.0045 7.06067 14.0045 7.1804 13.9865C7.31533 13.9663 7.44687 13.9153 7.71 13.8133L11.5767 12.3148C12.0891 12.1161 12.3453 12.0169 12.5345 11.8388C12.7015 11.6815 12.8306 11.4813 12.9101 11.256C13 11.0009 13 10.7025 13 10.1057V4.89425C13 4.29751 13 3.99915 12.9101 3.74402C12.8306 3.5187 12.7015 3.31847 12.5345 3.1612C12.3453 2.98313 12.0891 2.88383 11.5767 2.68522L7.71 1.18666C7.44687 1.08468 7.31533 1.0337 7.1804 1.01346C7.06067 0.995512 6.93933 0.995512 6.8196 1.01346C6.68467 1.0337 6.55313 1.08468 6.29 1.18666L2.42332 2.68522C1.91086 2.88383 1.65463 2.98313 1.46549 3.1612C1.29844 3.31847 1.16943 3.5187 1.08997 3.74402C1 3.99915 1 4.29751 1 4.89425V10.1057C1 10.7025 1 11.0009 1.08997 11.256C1.16943 11.4813 1.29844 11.6815 1.46549 11.8388C1.65463 12.0169 1.91086 12.1161 2.42332 12.3148Z" stroke="#A7A7A7" stroke-width="1.5" stroke-linecap="round" stroke-linejoin="round"/>
</svg>
