<svg width="15" height="11" viewBox="0 0 15 11" fill="none" xmlns="http://www.w3.org/2000/svg">
<path d="M4.9 8.71429H10.1M4.9 8.71429C4.9 9.42439 4.31797 10 3.6 10C2.88203 10 2.3 9.42439 2.3 8.71429M4.9 8.71429C4.9 8.00419 4.31797 7.42857 3.6 7.42857C2.88203 7.42857 2.3 8.00419 2.3 8.71429M10.1 8.71429C10.1 9.42439 10.682 10 11.4 10C12.118 10 12.7 9.42439 12.7 8.71429M10.1 8.71429C10.1 8.00419 10.682 7.42857 11.4 7.42857C12.118 7.42857 12.7 8.00419 12.7 8.71429M2.3 8.71429H2.04C1.67597 8.71429 1.49395 8.71429 1.35491 8.64421C1.2326 8.58256 1.13317 8.48427 1.07084 8.36329C1 8.22578 1 8.04578 1 7.68571V6.91429C1 6.19422 1 5.83416 1.14169 5.55914C1.26632 5.31724 1.4652 5.12052 1.70981 4.99729C1.9879 4.85714 2.35193 4.85714 3.08 4.85714H10.88C11.3631 4.85714 11.6046 4.85714 11.8067 4.88877C12.9192 5.06305 13.7918 5.92602 13.968 7.02634C14 7.2262 14 7.46509 14 7.94286C14 8.0623 14 8.12202 13.992 8.17197C13.9479 8.44705 13.7298 8.66279 13.4517 8.70638C13.4012 8.71429 13.3408 8.71429 13.22 8.71429H12.7M6.2 1V4.85714M2.3 4.85714L2.51549 3.57842C2.66986 2.66238 2.74704 2.20436 2.97815 1.86066C3.18186 1.55768 3.46808 1.31787 3.80375 1.16895C4.18454 1 4.65404 1 5.59304 1H7.78021C8.39069 1 8.69593 1 8.97303 1.08322C9.21834 1.1569 9.44649 1.27768 9.64454 1.43866C9.86827 1.62051 10.0376 1.8717 10.3762 2.37407L12.05 4.85714" stroke="#A7A7A7" stroke-width="1.2" stroke-linecap="round" stroke-linejoin="round"/>
</svg>
