<svg width="14" height="13" viewBox="0 0 14 13" fill="none" xmlns="http://www.w3.org/2000/svg">
<path d="M4.75 5.88889V2.83333C4.75 1.82081 5.75732 1 7 1C8.24268 1 9.25 1.82081 9.25 2.83333V5.86891M5.8 12H8.2C9.88015 12 10.7202 12 11.362 11.7336C11.9264 11.4992 12.3854 11.1253 12.673 10.6653C13 10.1424 13 9.4579 13 8.08889V6.62222C13 5.93772 13 5.59543 12.8365 5.334C12.6927 5.10403 12.4632 4.91706 12.181 4.79988C11.8602 4.66667 11.4401 4.66667 10.6 4.66667H3.4C2.55992 4.66667 2.13988 4.66667 1.81902 4.79988C1.53677 4.91706 1.3073 5.10403 1.16349 5.334C1 5.59543 1 5.93772 1 6.62222V8.08889C1 9.4579 1 10.1424 1.32698 10.6653C1.6146 11.1253 2.07354 11.4992 2.63803 11.7336C3.27976 12 4.11984 12 5.8 12Z" stroke="#A7A7A7" stroke-width="1.5" stroke-linecap="round" stroke-linejoin="round"/>
</svg>
