<svg width="13" height="13" viewBox="0 0 13 13" fill="none" xmlns="http://www.w3.org/2000/svg">
<path d="M11.1082 2.78381L10.2361 3.43786C10.0302 3.59224 9.77989 3.6757 9.52255 3.6757H7.52572C7.17045 3.6757 6.84562 3.87643 6.68675 4.19421C6.49065 4.58637 6.59238 5.06204 6.93172 5.33971L8.12091 6.31264C9.05674 7.07835 9.54104 8.26592 9.40755 9.4677L9.38002 9.71535C9.34304 10.0483 9.27098 10.3764 9.16502 10.6942L9.02707 11.108" stroke="#A7A7A7" stroke-width="1.3"/>
<path d="M1 5.45952L2.92536 5.13863C3.73023 5.00449 4.42801 5.70229 4.29387 6.50713L4.21389 6.98702C4.07069 7.8462 4.5046 8.6983 5.28369 9.08782C5.90749 9.39974 6.23101 10.1031 6.06185 10.7797L5.75676 12" stroke="#A7A7A7" stroke-width="1.3"/>
<path d="M6.6486 11.7026C9.60407 11.7026 12 9.30673 12 6.35129C12 3.39586 9.60407 1 6.6486 1C3.69313 1 1.29724 3.39586 1.29724 6.35129C1.29724 9.30673 3.69313 11.7026 6.6486 11.7026Z" stroke="#A7A7A7" stroke-width="1.3"/>
</svg>
