<svg width="1920" height="735" viewBox="0 0 1920 735" fill="none" xmlns="http://www.w3.org/2000/svg">
<g opacity="0.3">
<path opacity="0.0416667" d="M-1298 66.3811C-1173.75 118.472 -1049.51 118.472 -925.26 66.3811C-801.013 14.29 -676.767 14.29 -552.52 66.3811M-552.52 66.3811C-428.273 118.472 -304.027 118.472 -179.78 66.3811C-55.5333 14.29 68.7134 14.29 192.96 66.3811C317.207 118.472 441.453 118.472 565.7 66.3811C689.947 14.29 814.193 14.29 938.44 66.3811C1062.69 118.472 1186.93 118.472 1311.18 66.3811C1435.43 14.29 1559.67 14.29 1683.92 66.3811C1808.17 118.472 1932.41 118.472 2056.66 66.3811C2180.91 14.29 2305.15 14.29 2429.4 66.3811M2429.4 66.3811C2553.65 118.472 2677.89 118.472 2802.14 66.3811C2926.39 14.29 3050.63 14.29 3174.88 66.3811" stroke="white" stroke-width="2"/>
<path opacity="0.0833333" d="M-1298 93.694C-1173.75 145.785 -1049.51 145.785 -925.26 93.694C-801.013 41.6029 -676.767 41.6029 -552.52 93.694M-552.52 93.694C-428.273 145.785 -304.027 145.785 -179.78 93.694C-55.5333 41.6029 68.7134 41.6029 192.96 93.694C317.207 145.785 441.453 145.785 565.7 93.694C689.947 41.6029 814.193 41.6029 938.44 93.694C1062.69 145.785 1186.93 145.785 1311.18 93.694C1435.43 41.6029 1559.67 41.6029 1683.92 93.694C1808.17 145.785 1932.41 145.785 2056.66 93.694C2180.91 41.6029 2305.15 41.6029 2429.4 93.694M2429.4 93.694C2553.65 145.785 2677.89 145.785 2802.14 93.694C2926.39 41.6029 3050.63 41.6029 3174.88 93.694" stroke="white" stroke-width="2"/>
<path opacity="0.125" d="M-1298 121.007C-1173.75 173.098 -1049.51 173.098 -925.26 121.007C-801.013 68.9155 -676.767 68.9155 -552.52 121.007M-552.52 121.007C-428.273 173.098 -304.027 173.098 -179.78 121.007C-55.5333 68.9155 68.7134 68.9155 192.96 121.007C317.207 173.098 441.453 173.098 565.7 121.007C689.947 68.9155 814.193 68.9155 938.44 121.007C1062.69 173.098 1186.93 173.098 1311.18 121.007C1435.43 68.9155 1559.67 68.9155 1683.92 121.007C1808.17 173.098 1932.41 173.098 2056.66 121.007C2180.91 68.9155 2305.15 68.9155 2429.4 121.007M2429.4 121.007C2553.65 173.098 2677.89 173.098 2802.14 121.007C2926.39 68.9155 3050.63 68.9155 3174.88 121.007" stroke="white" stroke-width="2"/>
<path opacity="0.166667" d="M-1298 148.32C-1173.75 200.411 -1049.51 200.411 -925.26 148.32C-801.013 96.2285 -676.767 96.2285 -552.52 148.32M-552.52 148.32C-428.273 200.411 -304.027 200.411 -179.78 148.32C-55.5333 96.2285 68.7134 96.2285 192.96 148.32C317.207 200.411 441.453 200.411 565.7 148.32C689.947 96.2285 814.193 96.2285 938.44 148.32C1062.69 200.411 1186.93 200.411 1311.18 148.32C1435.43 96.2285 1559.67 96.2285 1683.92 148.32C1808.17 200.411 1932.41 200.411 2056.66 148.32C2180.91 96.2285 2305.15 96.2285 2429.4 148.32M2429.4 148.32C2553.65 200.411 2677.89 200.411 2802.14 148.32C2926.39 96.2285 3050.63 96.2285 3174.88 148.32" stroke="white" stroke-width="2"/>
<path opacity="0.208333" d="M-1298 175.632C-1173.75 227.723 -1049.51 227.723 -925.26 175.632C-801.013 123.541 -676.767 123.541 -552.52 175.632M-552.52 175.632C-428.273 227.723 -304.027 227.723 -179.78 175.632C-55.5333 123.541 68.7134 123.541 192.96 175.632C317.207 227.723 441.453 227.723 565.7 175.632C689.947 123.541 814.193 123.541 938.44 175.632C1062.69 227.723 1186.93 227.723 1311.18 175.632C1435.43 123.541 1559.67 123.541 1683.92 175.632C1808.17 227.723 1932.41 227.723 2056.66 175.632C2180.91 123.541 2305.15 123.541 2429.4 175.632M2429.4 175.632C2553.65 227.723 2677.89 227.723 2802.14 175.632C2926.39 123.541 3050.63 123.541 3174.88 175.632" stroke="white" stroke-width="2"/>
<path opacity="0.25" d="M-1298 202.945C-1173.75 255.036 -1049.51 255.036 -925.26 202.945C-801.013 150.854 -676.767 150.854 -552.52 202.945M-552.52 202.945C-428.273 255.036 -304.027 255.036 -179.78 202.945C-55.5333 150.854 68.7134 150.854 192.96 202.945C317.207 255.036 441.453 255.036 565.7 202.945C689.947 150.854 814.193 150.854 938.44 202.945C1062.69 255.036 1186.93 255.036 1311.18 202.945C1435.43 150.854 1559.67 150.854 1683.92 202.945C1808.17 255.036 1932.41 255.036 2056.66 202.945C2180.91 150.854 2305.15 150.854 2429.4 202.945M2429.4 202.945C2553.65 255.036 2677.89 255.036 2802.14 202.945C2926.39 150.854 3050.63 150.854 3174.88 202.945" stroke="white" stroke-width="2"/>
<path opacity="0.291667" d="M-1298 230.258C-1173.75 282.349 -1049.51 282.349 -925.26 230.258C-801.013 178.167 -676.767 178.167 -552.52 230.258M-552.52 230.258C-428.273 282.349 -304.027 282.349 -179.78 230.258C-55.5333 178.167 68.7134 178.167 192.96 230.258C317.207 282.349 441.453 282.349 565.7 230.258C689.947 178.167 814.193 178.167 938.44 230.258C1062.69 282.349 1186.93 282.349 1311.18 230.258C1435.43 178.167 1559.67 178.167 1683.92 230.258C1808.17 282.349 1932.41 282.349 2056.66 230.258C2180.91 178.167 2305.15 178.167 2429.4 230.258M2429.4 230.258C2553.65 282.349 2677.89 282.349 2802.14 230.258C2926.39 178.167 3050.63 178.167 3174.88 230.258" stroke="white" stroke-width="2"/>
<path opacity="0.333333" d="M-1298 257.571C-1173.75 309.662 -1049.51 309.662 -925.26 257.571C-801.013 205.48 -676.767 205.48 -552.52 257.571M-552.52 257.571C-428.273 309.662 -304.027 309.662 -179.78 257.571C-55.5333 205.48 68.7134 205.48 192.96 257.571C317.207 309.662 441.453 309.662 565.7 257.571C689.947 205.48 814.193 205.48 938.44 257.571C1062.69 309.662 1186.93 309.662 1311.18 257.571C1435.43 205.48 1559.67 205.48 1683.92 257.571C1808.17 309.662 1932.41 309.662 2056.66 257.571C2180.91 205.48 2305.15 205.48 2429.4 257.571M2429.4 257.571C2553.65 309.662 2677.89 309.662 2802.14 257.571C2926.39 205.48 3050.63 205.48 3174.88 257.571" stroke="white" stroke-width="2"/>
<path opacity="0.375" d="M-1298 284.884C-1173.75 336.975 -1049.51 336.975 -925.26 284.884C-801.013 232.792 -676.767 232.792 -552.52 284.884M-552.52 284.884C-428.273 336.975 -304.027 336.975 -179.78 284.884C-55.5333 232.792 68.7134 232.792 192.96 284.884C317.207 336.975 441.453 336.975 565.7 284.884C689.947 232.792 814.193 232.792 938.44 284.884C1062.69 336.975 1186.93 336.975 1311.18 284.884C1435.43 232.792 1559.67 232.792 1683.92 284.884C1808.17 336.975 1932.41 336.975 2056.66 284.884C2180.91 232.792 2305.15 232.792 2429.4 284.884M2429.4 284.884C2553.65 336.975 2677.89 336.975 2802.14 284.884C2926.39 232.792 3050.63 232.792 3174.88 284.884" stroke="white" stroke-width="2"/>
<path opacity="0.416667" d="M-1298 312.196C-1173.75 364.287 -1049.51 364.287 -925.26 312.196C-801.013 260.105 -676.767 260.105 -552.52 312.196M-552.52 312.196C-428.273 364.287 -304.027 364.287 -179.78 312.196C-55.5333 260.105 68.7134 260.105 192.96 312.196C317.207 364.287 441.453 364.287 565.7 312.196C689.947 260.105 814.193 260.105 938.44 312.196C1062.69 364.287 1186.93 364.287 1311.18 312.196C1435.43 260.105 1559.67 260.105 1683.92 312.196C1808.17 364.287 1932.41 364.287 2056.66 312.196C2180.91 260.105 2305.15 260.105 2429.4 312.196M2429.4 312.196C2553.65 364.287 2677.89 364.287 2802.14 312.196C2926.39 260.105 3050.63 260.105 3174.88 312.196" stroke="white" stroke-width="2"/>
<path opacity="0.458333" d="M-1298 339.509C-1173.75 391.6 -1049.51 391.6 -925.26 339.509C-801.013 287.418 -676.767 287.418 -552.52 339.509M-552.52 339.509C-428.273 391.6 -304.027 391.6 -179.78 339.509C-55.5333 287.418 68.7134 287.418 192.96 339.509C317.207 391.6 441.453 391.6 565.7 339.509C689.947 287.418 814.193 287.418 938.44 339.509C1062.69 391.6 1186.93 391.6 1311.18 339.509C1435.43 287.418 1559.67 287.418 1683.92 339.509C1808.17 391.6 1932.41 391.6 2056.66 339.509C2180.91 287.418 2305.15 287.418 2429.4 339.509M2429.4 339.509C2553.65 391.6 2677.89 391.6 2802.14 339.509C2926.39 287.418 3050.63 287.418 3174.88 339.509" stroke="white" stroke-width="2"/>
<path opacity="0.5" d="M-1298 366.822C-1173.75 418.913 -1049.51 418.913 -925.26 366.822C-801.013 314.731 -676.767 314.731 -552.52 366.822M-552.52 366.822C-428.273 418.913 -304.027 418.913 -179.78 366.822C-55.5333 314.731 68.7134 314.731 192.96 366.822C317.207 418.913 441.453 418.913 565.7 366.822C689.947 314.731 814.193 314.731 938.44 366.822C1062.69 418.913 1186.93 418.913 1311.18 366.822C1435.43 314.731 1559.67 314.731 1683.92 366.822C1808.17 418.913 1932.41 418.913 2056.66 366.822C2180.91 314.731 2305.15 314.731 2429.4 366.822M2429.4 366.822C2553.65 418.913 2677.89 418.913 2802.14 366.822C2926.39 314.731 3050.63 314.731 3174.88 366.822" stroke="white" stroke-width="2"/>
<path opacity="0.541667" d="M-1298 394.135C-1173.75 446.226 -1049.51 446.226 -925.26 394.135C-801.013 342.044 -676.767 342.044 -552.52 394.135M-552.52 394.135C-428.273 446.226 -304.027 446.226 -179.78 394.135C-55.5333 342.044 68.7134 342.044 192.96 394.135C317.207 446.226 441.453 446.226 565.7 394.135C689.947 342.044 814.193 342.044 938.44 394.135C1062.69 446.226 1186.93 446.226 1311.18 394.135C1435.43 342.044 1559.67 342.044 1683.92 394.135C1808.17 446.226 1932.41 446.226 2056.66 394.135C2180.91 342.044 2305.15 342.044 2429.4 394.135M2429.4 394.135C2553.65 446.226 2677.89 446.226 2802.14 394.135C2926.39 342.044 3050.63 342.044 3174.88 394.135" stroke="white" stroke-width="2"/>
<path opacity="0.583333" d="M-1298 421.448C-1173.75 473.539 -1049.51 473.539 -925.26 421.448C-801.013 369.357 -676.767 369.357 -552.52 421.448M-552.52 421.448C-428.273 473.539 -304.027 473.539 -179.78 421.448C-55.5333 369.357 68.7134 369.357 192.96 421.448C317.207 473.539 441.453 473.539 565.7 421.448C689.947 369.357 814.193 369.357 938.44 421.448C1062.69 473.539 1186.93 473.539 1311.18 421.448C1435.43 369.357 1559.67 369.357 1683.92 421.448C1808.17 473.539 1932.41 473.539 2056.66 421.448C2180.91 369.357 2305.15 369.357 2429.4 421.448M2429.4 421.448C2553.65 473.539 2677.89 473.539 2802.14 421.448C2926.39 369.357 3050.63 369.357 3174.88 421.448" stroke="white" stroke-width="2"/>
<path opacity="0.625" d="M-1298 448.76C-1173.75 500.851 -1049.51 500.851 -925.26 448.76C-801.013 396.669 -676.767 396.669 -552.52 448.76M-552.52 448.76C-428.273 500.851 -304.027 500.851 -179.78 448.76C-55.5333 396.669 68.7134 396.669 192.96 448.76C317.207 500.851 441.453 500.851 565.7 448.76C689.947 396.669 814.193 396.669 938.44 448.76C1062.69 500.851 1186.93 500.851 1311.18 448.76C1435.43 396.669 1559.67 396.669 1683.92 448.76C1808.17 500.851 1932.41 500.851 2056.66 448.76C2180.91 396.669 2305.15 396.669 2429.4 448.76M2429.4 448.76C2553.65 500.851 2677.89 500.851 2802.14 448.76C2926.39 396.669 3050.63 396.669 3174.88 448.76" stroke="white" stroke-width="2"/>
<path opacity="0.666667" d="M-1298 476.073C-1173.75 528.164 -1049.51 528.164 -925.26 476.073C-801.013 423.982 -676.767 423.982 -552.52 476.073M-552.52 476.073C-428.273 528.164 -304.027 528.164 -179.78 476.073C-55.5333 423.982 68.7134 423.982 192.96 476.073C317.207 528.164 441.453 528.164 565.7 476.073C689.947 423.982 814.193 423.982 938.44 476.073C1062.69 528.164 1186.93 528.164 1311.18 476.073C1435.43 423.982 1559.67 423.982 1683.92 476.073C1808.17 528.164 1932.41 528.164 2056.66 476.073C2180.91 423.982 2305.15 423.982 2429.4 476.073M2429.4 476.073C2553.65 528.164 2677.89 528.164 2802.14 476.073C2926.39 423.982 3050.63 423.982 3174.88 476.073" stroke="white" stroke-width="2"/>
<path opacity="0.708333" d="M-1298 503.386C-1173.75 555.477 -1049.51 555.477 -925.26 503.386C-801.013 451.295 -676.767 451.295 -552.52 503.386M-552.52 503.386C-428.273 555.477 -304.027 555.477 -179.78 503.386C-55.5333 451.295 68.7134 451.295 192.96 503.386C317.207 555.477 441.453 555.477 565.7 503.386C689.947 451.295 814.193 451.295 938.44 503.386C1062.69 555.477 1186.93 555.477 1311.18 503.386C1435.43 451.295 1559.67 451.295 1683.92 503.386C1808.17 555.477 1932.41 555.477 2056.66 503.386C2180.91 451.295 2305.15 451.295 2429.4 503.386M2429.4 503.386C2553.65 555.477 2677.89 555.477 2802.14 503.386C2926.39 451.295 3050.63 451.295 3174.88 503.386" stroke="white" stroke-width="2"/>
<path opacity="0.75" d="M-1298 530.699C-1173.75 582.79 -1049.51 582.79 -925.26 530.699C-801.013 478.608 -676.767 478.608 -552.52 530.699M-552.52 530.699C-428.273 582.79 -304.027 582.79 -179.78 530.699C-55.5333 478.608 68.7134 478.608 192.96 530.699C317.207 582.79 441.453 582.79 565.7 530.699C689.947 478.608 814.193 478.608 938.44 530.699C1062.69 582.79 1186.93 582.79 1311.18 530.699C1435.43 478.608 1559.67 478.608 1683.92 530.699C1808.17 582.79 1932.41 582.79 2056.66 530.699C2180.91 478.608 2305.15 478.608 2429.4 530.699M2429.4 530.699C2553.65 582.79 2677.89 582.79 2802.14 530.699C2926.39 478.608 3050.63 478.608 3174.88 530.699" stroke="white" stroke-width="2"/>
<path opacity="0.791667" d="M-1298 558.012C-1173.75 610.103 -1049.51 610.103 -925.26 558.012C-801.013 505.92 -676.767 505.92 -552.52 558.012M-552.52 558.012C-428.273 610.103 -304.027 610.103 -179.78 558.012C-55.5333 505.92 68.7134 505.92 192.96 558.012C317.207 610.103 441.453 610.103 565.7 558.012C689.947 505.92 814.193 505.92 938.44 558.012C1062.69 610.103 1186.93 610.103 1311.18 558.012C1435.43 505.92 1559.67 505.92 1683.92 558.012C1808.17 610.103 1932.41 610.103 2056.66 558.012C2180.91 505.92 2305.15 505.92 2429.4 558.012M2429.4 558.012C2553.65 610.103 2677.89 610.103 2802.14 558.012C2926.39 505.92 3050.63 505.92 3174.88 558.012" stroke="white" stroke-width="2"/>
<path opacity="0.833333" d="M-1298 585.324C-1173.75 637.415 -1049.51 637.415 -925.26 585.324C-801.013 533.233 -676.767 533.233 -552.52 585.324M-552.52 585.324C-428.273 637.415 -304.027 637.415 -179.78 585.324C-55.5333 533.233 68.7134 533.233 192.96 585.324C317.207 637.415 441.453 637.415 565.7 585.324C689.947 533.233 814.193 533.233 938.44 585.324C1062.69 637.415 1186.93 637.415 1311.18 585.324C1435.43 533.233 1559.67 533.233 1683.92 585.324C1808.17 637.415 1932.41 637.415 2056.66 585.324C2180.91 533.233 2305.15 533.233 2429.4 585.324M2429.4 585.324C2553.65 637.415 2677.89 637.415 2802.14 585.324C2926.39 533.233 3050.63 533.233 3174.88 585.324" stroke="white" stroke-width="2"/>
<path opacity="0.875" d="M-1298 612.637C-1173.75 664.728 -1049.51 664.728 -925.26 612.637C-801.013 560.546 -676.767 560.546 -552.52 612.637M-552.52 612.637C-428.273 664.728 -304.027 664.728 -179.78 612.637C-55.5333 560.546 68.7134 560.546 192.96 612.637C317.207 664.728 441.453 664.728 565.7 612.637C689.947 560.546 814.193 560.546 938.44 612.637C1062.69 664.728 1186.93 664.728 1311.18 612.637C1435.43 560.546 1559.67 560.546 1683.92 612.637C1808.17 664.728 1932.41 664.728 2056.66 612.637C2180.91 560.546 2305.15 560.546 2429.4 612.637M2429.4 612.637C2553.65 664.728 2677.89 664.728 2802.14 612.637C2926.39 560.546 3050.63 560.546 3174.88 612.637" stroke="white" stroke-width="2"/>
<path opacity="0.916667" d="M-1298 639.95C-1173.75 692.041 -1049.51 692.041 -925.26 639.95C-801.013 587.859 -676.767 587.859 -552.52 639.95M-552.52 639.95C-428.273 692.041 -304.027 692.041 -179.78 639.95C-55.5333 587.859 68.7134 587.859 192.96 639.95C317.207 692.041 441.453 692.041 565.7 639.95C689.947 587.859 814.193 587.859 938.44 639.95C1062.69 692.041 1186.93 692.041 1311.18 639.95C1435.43 587.859 1559.67 587.859 1683.92 639.95C1808.17 692.041 1932.41 692.041 2056.66 639.95C2180.91 587.859 2305.15 587.859 2429.4 639.95M2429.4 639.95C2553.65 692.041 2677.89 692.041 2802.14 639.95C2926.39 587.859 3050.63 587.859 3174.88 639.95" stroke="white" stroke-width="2"/>
<path opacity="0.958333" d="M-1298 667.263C-1173.75 719.354 -1049.51 719.354 -925.26 667.263C-801.013 615.172 -676.767 615.172 -552.52 667.263M-552.52 667.263C-428.273 719.354 -304.027 719.354 -179.78 667.263C-55.5333 615.172 68.7134 615.172 192.96 667.263C317.207 719.354 441.453 719.354 565.7 667.263C689.947 615.172 814.193 615.172 938.44 667.263C1062.69 719.354 1186.93 719.354 1311.18 667.263C1435.43 615.172 1559.67 615.172 1683.92 667.263C1808.17 719.354 1932.41 719.354 2056.66 667.263C2180.91 615.172 2305.15 615.172 2429.4 667.263M2429.4 667.263C2553.65 719.354 2677.89 719.354 2802.14 667.263C2926.39 615.172 3050.63 615.172 3174.88 667.263" stroke="white" stroke-width="2"/>
<path d="M-1298 694.576C-1173.75 746.667 -1049.51 746.667 -925.26 694.576C-801.013 642.484 -676.767 642.484 -552.52 694.576M-552.52 694.576C-428.273 746.667 -304.027 746.667 -179.78 694.576C-55.5333 642.484 68.7134 642.484 192.96 694.576C317.207 746.667 441.453 746.667 565.7 694.576C689.947 642.484 814.193 642.484 938.44 694.576C1062.69 746.667 1186.93 746.667 1311.18 694.576C1435.43 642.484 1559.67 642.484 1683.92 694.576C1808.17 746.667 1932.41 746.667 2056.66 694.576C2180.91 642.484 2305.15 642.484 2429.4 694.576M2429.4 694.576C2553.65 746.667 2677.89 746.667 2802.14 694.576C2926.39 642.484 3050.63 642.484 3174.88 694.576" stroke="white" stroke-width="2"/>
</g>
</svg>
