<svg width="50" height="50" viewBox="0 0 448 448" fill="none" xmlns="http://www.w3.org/2000/svg">
<path d="M246.4 448C244.8 448 243.2 448 240 448H211.2C209.6 448 208 448 206.4 448C126.4 441.531 56 391.393 22.4 318.614C20.8 312.144 20.8 308.91 20.8 304.058C20.8 291.119 25.6001 283.032 32.0001 276.563C36.8001 273.329 40.0001 271.711 46.4001 270.094C48.0001 270.094 48.0001 270.094 49.6001 270.094C56.0001 270.094 64.0001 271.711 72.0001 274.946C88.0001 283.032 102.4 294.354 116.8 312.144C121.6 318.614 126.4 323.466 131.2 329.935C136 336.404 140.8 342.874 147.2 349.343C158.4 362.282 171.2 373.603 185.6 386.541C203.2 401.097 220.8 410.801 240 418.888C259.2 426.975 280 433.444 300.8 435.061C281.6 443.148 264 446.383 246.4 448Z" fill="url(#paint0_linear_1_496)"/>
<path d="M355.2 384.924C345.6 388.159 336 389.776 324.8 389.776C323.2 389.776 320 389.776 318.4 389.776C299.2 389.776 280 384.924 259.2 376.837C244.8 370.368 230.4 362.282 216 350.96C203.2 341.256 192 329.935 184 320.231C179.2 313.762 174.4 308.91 169.6 302.44C164.8 295.971 160 289.502 155.2 284.65C132.8 258.773 113.6 244.217 92.8 232.895C78.4 226.426 64 223.191 49.6 223.191C48 223.191 44.8 223.191 41.6 223.191C25.6 224.809 11.2 231.278 0 240.982C0 239.365 0 237.747 0 236.13C0 231.278 0 228.043 0 223.191V216.722C0 215.105 3.57628e-07 213.487 1.6 211.87C4.8 190.845 12.8 174.671 25.6 160.115C38.4 147.177 52.8 139.09 68.8 137.473C72 137.473 73.6 137.473 76.8 137.473C88 137.473 100.8 140.708 113.6 145.56C128 152.029 140.8 160.115 155.2 173.054C172.8 189.227 188.8 208.635 204.8 231.278C212.8 244.217 222.4 258.773 233.6 271.711C256 297.588 278.4 316.996 302.4 331.552C324.8 344.491 345.6 350.96 368 352.578C371.2 352.578 374.4 352.578 377.6 352.578C388.8 352.578 400 350.96 409.6 349.343C393.6 367.134 376 378.455 355.2 384.924Z" fill="url(#paint1_linear_1_496)"/>
<path d="M448 258.772C443.2 271.711 436.8 281.415 427.2 289.502C412.8 302.44 396.8 307.292 376 307.292C374.4 307.292 371.2 307.292 369.6 307.292C355.2 305.675 339.2 300.823 323.2 292.736C304 281.415 284.8 265.242 267.2 244.217C257.6 232.895 249.6 219.957 241.6 207.018C224 179.523 204.8 158.498 184 139.09C166.4 122.917 148.8 111.596 131.2 103.509C113.6 95.4223 94.4 92.1876 76.8 92.1876C72 92.1876 68.8001 92.1876 64.0001 92.1876C54.4001 93.805 44.8 95.4223 36.8 98.657C41.6 90.5703 46.4 84.101 52.8 77.6317L54.4001 76.0144C56.0001 74.397 59.2 72.7797 60.8 71.1624C76.8 56.6064 92.8 48.5198 108.8 42.0505C118.4 38.8158 128 37.1985 136 37.1985C139.2 37.1985 142.4 37.1985 145.6 37.1985C160 38.8158 174.4 43.6678 188.8 51.7544C204.8 61.4584 219.2 74.397 235.2 90.5703C248 105.126 259.2 119.682 270.4 135.856C273.6 140.707 275.2 143.942 278.4 148.794C283.2 155.263 286.4 161.733 291.2 169.819C305.6 190.845 320 208.635 336 223.191C348.8 234.513 361.6 242.599 376 249.068C390.4 255.538 403.2 258.772 417.6 258.772C422.4 258.772 425.6 258.772 428.8 257.155C435.2 255.538 441.6 255.538 448 252.303C448 255.538 448 257.155 448 258.772Z" fill="url(#paint2_linear_1_496)"/>
<path d="M424 211.87C422.4 211.87 419.2 211.87 417.6 211.87C409.6 211.87 403.2 210.253 393.6 207.018C384 203.783 376 197.314 366.4 189.227C353.6 177.906 342.4 163.35 329.6 145.56C324.8 139.09 321.6 132.621 316.8 126.152C313.6 121.3 310.4 116.448 308.8 113.213C296 93.805 283.2 77.6318 270.4 61.4585C251.2 40.4332 233.6 24.2599 212.8 12.9386C204.8 8.08664 195.2 3.23466 185.6 0C187.2 0 190.4 0 193.6 0C198.4 0 203.2 -1.5665e-06 209.6 1.61733C225.6 3.23465 241.6 8.08664 256 14.556C275.2 22.6426 292.8 35.5812 310.4 53.3718C315.2 58.2238 320 63.0758 323.2 67.9278C329.6 76.0144 337.6 85.7184 344 93.805C348.8 100.274 353.6 106.744 358.4 113.213C361.6 116.448 363.2 121.3 366.4 124.534C374.4 135.856 384 150.412 398.4 161.733C412.8 173.054 427.2 177.906 443.2 177.906C444.8 177.906 446.4 177.906 446.4 177.906C446.4 179.523 446.4 179.523 446.4 181.141C448 185.993 448 192.462 448 197.314V198.931C441.6 207.018 433.6 211.87 424 211.87Z" fill="url(#paint3_linear_1_496)"/>
<path d="M363.2 38.8158C374.4 46.9025 384 56.6064 393.6 66.3104C406.4 80.8663 417.6 95.4223 425.6 113.213C427.2 118.065 430.4 122.917 432 127.769C430.4 126.152 428.8 126.152 427.2 124.534C417.6 116.448 409.6 105.126 404.8 97.0396C401.6 93.805 400 88.953 396.8 85.7183C392 79.249 387.2 71.1624 382.4 64.6931C376 54.9891 368 46.9025 361.6 37.1985L363.2 38.8158Z" fill="url(#paint4_linear_1_496)"/>
<defs>
<linearGradient id="paint0_linear_1_496" x1="160.8" y1="270.094" x2="160.8" y2="448" gradientUnits="userSpaceOnUse">
<stop stop-color="#9977CE"/>
<stop offset="1" stop-color="#543883"/>
</linearGradient>
<linearGradient id="paint1_linear_1_496" x1="204.8" y1="137.473" x2="204.8" y2="389.776" gradientUnits="userSpaceOnUse">
<stop stop-color="#9977CE"/>
<stop offset="1" stop-color="#543883"/>
</linearGradient>
<linearGradient id="paint2_linear_1_496" x1="242.4" y1="37.1985" x2="242.4" y2="307.292" gradientUnits="userSpaceOnUse">
<stop stop-color="#9977CE"/>
<stop offset="1" stop-color="#543883"/>
</linearGradient>
<linearGradient id="paint3_linear_1_496" x1="316.8" y1="0" x2="316.8" y2="211.87" gradientUnits="userSpaceOnUse">
<stop stop-color="#9977CE"/>
<stop offset="1" stop-color="#543883"/>
</linearGradient>
<linearGradient id="paint4_linear_1_496" x1="396.8" y1="37.1985" x2="396.8" y2="127.769" gradientUnits="userSpaceOnUse">
<stop stop-color="#9977CE"/>
<stop offset="1" stop-color="#543883"/>
</linearGradient>
</defs>
</svg>
