<svg width="53" height="50" viewBox="0 0 53 50" fill="none" xmlns="http://www.w3.org/2000/svg">
<path d="M35.5416 11.875C35.5416 16.7765 31.5683 20.75 26.6666 20.75C21.765 20.75 17.7916 16.7765 17.7916 11.875C17.7916 6.97349 21.765 3 26.6666 3C31.5683 3 35.5416 6.97349 35.5416 11.875Z" stroke="white" stroke-width="5" stroke-linecap="round" stroke-linejoin="round"/>
<path d="M20.75 38.5C20.75 43.4017 16.7765 47.375 11.875 47.375C6.97349 47.375 3 43.4017 3 38.5C3 33.5983 6.97349 29.625 11.875 29.625C16.7765 29.625 20.75 33.5983 20.75 38.5Z" stroke="white" stroke-width="5" stroke-linecap="round" stroke-linejoin="round"/>
<path d="M50.3334 38.5C50.3334 43.4017 46.36 47.375 41.4584 47.375C36.5567 47.375 32.5834 43.4017 32.5834 38.5C32.5834 33.5983 36.5567 29.625 41.4584 29.625C46.36 29.625 50.3334 33.5983 50.3334 38.5Z" stroke="white" stroke-width="5" stroke-linecap="round" stroke-linejoin="round"/>
</svg>
