<svg width="26" height="46" viewBox="0 0 26 46" fill="none" xmlns="http://www.w3.org/2000/svg">
<path d="M14.9875 46H11.7445C11.0191 46 10.4312 45.4119 10.4312 44.6857V42.0473C10.4312 41.3533 9.89169 40.7829 9.20202 40.7061C7.56001 40.524 5.97187 40.1843 4.43694 39.6875C2.94579 39.1973 1.65394 38.6163 0.561372 37.9428C0.059271 37.6333 -0.123381 37.005 0.0841947 36.453L2.30866 30.5348C2.60837 29.7383 3.57485 29.4334 4.31908 29.8455C5.32395 30.4007 6.40426 30.8759 7.55866 31.2701C9.27947 31.8248 10.9309 32.1021 12.5123 32.1021C13.8721 32.1021 14.844 31.9555 15.4266 31.6618C16.0092 31.3352 16.3008 30.8621 16.3008 30.2424C16.3008 29.5248 15.9122 28.9866 15.135 28.6278C14.386 28.269 13.1367 27.8773 11.3889 27.4535C9.14073 26.8988 7.2677 26.3113 5.76915 25.6917C4.27059 25.0391 2.966 23.9949 1.85606 22.5597C0.745847 21.0917 0.190876 19.1176 0.190876 16.6382C0.190876 13.7671 1.06509 11.3042 2.81312 9.24863C4.38913 7.42572 6.56456 6.19291 9.34076 5.55089C9.96577 5.40631 10.4312 4.86351 10.4312 4.22214V1.31428C10.4312 0.588142 11.0191 0 11.7445 0H14.9875C15.7128 0 16.3008 0.588142 16.3008 1.31428V4.05589C16.3008 4.72749 16.8073 5.28671 17.47 5.38989C19.9021 5.76774 22.0391 6.48337 23.8805 7.53677C24.4031 7.83577 24.6105 8.47188 24.4098 9.03966L22.328 14.9336C22.0526 15.7149 21.1332 16.0455 20.3937 15.6722C18.0486 14.4893 15.8105 13.8979 13.6782 13.8979C11.1525 13.8979 9.88967 14.6155 9.88967 16.0507C9.88967 16.7361 10.2648 17.2579 11.0138 17.6173C11.7634 17.9433 12.9979 18.3021 14.7187 18.6937C16.9386 19.1833 18.8123 19.7537 20.3385 20.4063C21.8647 21.0259 23.1827 22.0537 24.2933 23.4896C25.4309 24.9248 26 26.8824 26 29.3618C26 32.1021 25.1534 34.5 23.4602 36.5555C21.9859 38.3469 19.9445 39.6007 17.3373 40.3177C16.7379 40.4826 16.3008 41.0136 16.3008 41.6353V44.6857C16.3008 45.4119 15.7128 46 14.9875 46Z" fill="white"/>
</svg>
