<svg width="50" height="50" viewBox="0 0 50 50" fill="none" xmlns="http://www.w3.org/2000/svg">
<path d="M34.0537 0C37.8153 0 40.8645 3.04929 40.8645 6.81075C40.8645 8.06456 39.8481 9.081 38.5942 9.081C37.3404 9.081 36.324 8.06456 36.324 6.81075C36.324 5.55694 35.3076 4.5405 34.0537 4.5405H6.81075C5.55694 4.5405 4.5405 5.55694 4.5405 6.81075V43.1348C4.5405 44.3886 5.55694 45.405 6.81075 45.405H34.0537C35.3076 45.405 36.324 44.3886 36.324 43.1348V40.8645C36.324 39.6106 37.3404 38.5942 38.5942 38.5942C39.8481 38.5942 40.8645 39.6106 40.8645 40.8645V43.1348C40.8645 46.8963 37.8153 49.9455 34.0537 49.9455H6.81075C3.04929 49.9455 0 46.8963 0 43.1348V6.81075C0 3.04929 3.04929 0 6.81075 0H34.0537Z" fill="white"/>
<path fill-rule="evenodd" clip-rule="evenodd" d="M44.9489 16.3479C44.2683 15.6672 43.1647 15.6672 42.4838 16.3479L24.7834 34.0487C24.4487 34.3831 24.2269 34.814 24.1493 35.2807L23.7758 37.521L26.0161 37.1475C26.4829 37.0699 26.9138 36.8481 27.2482 36.5137L44.9489 18.8129C45.6297 18.1322 45.6297 17.0286 44.9489 16.3479ZM39.2733 13.1373C41.7272 10.6834 45.7058 10.6834 48.1597 13.1373C50.6134 15.5912 50.6134 19.5697 48.1597 22.0236L30.459 39.7243C29.4551 40.728 28.1629 41.3929 26.7626 41.6263L24.5223 41.9997C21.4493 42.5119 18.7849 39.8478 19.2971 36.7745L19.6705 34.5343C19.9039 33.134 20.5689 31.8417 21.5726 30.8378L39.2733 13.1373Z" fill="white"/>
<path d="M9.08105 13.6213C9.08105 12.3675 10.0975 11.3511 11.3513 11.3511H29.5133C30.7672 11.3511 31.7836 12.3675 31.7836 13.6213C31.7836 14.8751 30.7672 15.8916 29.5133 15.8916H11.3513C10.0975 15.8916 9.08105 14.8751 9.08105 13.6213Z" fill="white"/>
<path d="M9.08105 22.7024C9.08105 21.4485 10.0975 20.4321 11.3513 20.4321H20.4323C21.6862 20.4321 22.7026 21.4485 22.7026 22.7024C22.7026 23.9562 21.6862 24.9726 20.4323 24.9726H11.3513C10.0975 24.9726 9.08105 23.9562 9.08105 22.7024Z" fill="white"/>
<path d="M9.08105 31.7834C9.08105 30.5296 10.0975 29.5132 11.3513 29.5132H13.6216C14.8754 29.5132 15.8918 30.5296 15.8918 31.7834C15.8918 33.0373 14.8754 34.0537 13.6216 34.0537H11.3513C10.0975 34.0537 9.08105 33.0373 9.08105 31.7834Z" fill="white"/>
</svg>
