<svg width="18" height="20" viewBox="0 0 18 20" fill="none" xmlns="http://www.w3.org/2000/svg">
<path d="M9.00003 19.9997C10.2624 19.9997 11.3115 19.1063 11.5292 17.9285H6.47083C6.68859 19.1063 7.7377 19.9997 9.00003 19.9997Z" fill="white"/>
<path d="M17.4328 13.7687C16.5389 12.8909 15.4286 12.4691 15.4286 8.20371C15.4286 5.07149 13.105 2.47262 10.0582 1.97707H9.8918C10.086 1.76711 10.2044 1.4883 10.2044 1.18232C10.2044 0.529196 9.66516 -0.000244141 9 -0.000244141C8.33484 -0.000244141 7.79565 0.529196 7.79565 1.18232C7.79565 1.48826 7.91401 1.76711 8.1082 1.97707H7.94182C4.89499 2.47262 2.57142 5.07149 2.57142 8.20371C2.57142 12.4691 1.46077 12.8909 0.566795 13.7687C-0.644549 14.9581 0.213946 17.0014 1.9305 17.0014H16.0691C17.7823 17.0014 18.6466 14.9605 17.4328 13.7687Z" fill="white"/>
</svg>
