<svg width="35" height="35" viewBox="-4 -4 28 28" fill="none" xmlns="http://www.w3.org/2000/svg">
<g filter="url(#filter0_d_174_1194)">
<path d="M16.5469 14.4297L14.6703 12.5688C13.7648 11.6707 13.312 11.2217 12.7924 11.0576C12.3355 10.9133 11.8443 10.9186 11.3905 11.0728C10.8746 11.2482 10.4317 11.7068 9.54576 12.6242L5.0496 17.0651M16.5469 14.4297L16.931 14.0489C17.8376 13.1498 18.2909 12.7002 18.8111 12.5361C19.2685 12.3918 19.76 12.3975 20.214 12.5523C20.7302 12.7282 21.1731 13.1881 22.0588 14.1078L23 15.0551M16.5469 14.4297L21.0594 18.9511M5.0496 17.0651C5.08451 17.3486 5.14395 17.5727 5.24524 17.7715C5.46095 18.1948 5.80515 18.5391 6.22852 18.7547C6.70982 19 7.33988 19 8.6 19H19.4C20.1361 19 20.6573 19 21.0594 18.9511M5.0496 17.0651C5 16.6624 5 16.1397 5 15.4V4.6C5 3.33989 5 2.70982 5.24524 2.22852C5.46095 1.80515 5.80515 1.46095 6.22852 1.24524C6.70982 1 7.33988 1 8.6 1H19.4C20.6601 1 21.2902 1 21.7715 1.24524C22.1948 1.46095 22.5391 1.80515 22.7547 2.22852C23 2.70982 23 3.33989 23 4.6V15.0551M23 15.0551V15.4C23 16.6601 23 17.2902 22.7547 17.7715C22.5391 18.1948 22.1948 18.5391 21.7715 18.7547C21.5714 18.8568 21.3455 18.9163 21.0594 18.9511M19.625 6.62488C19.625 7.86756 18.6177 8.87489 17.375 8.87489C16.1323 8.87489 15.125 7.86756 15.125 6.62488C15.125 5.38224 16.1323 4.37488 17.375 4.37488C18.6177 4.37488 19.625 5.38224 19.625 6.62488Z" stroke="#A7A7A7" stroke-linecap="round" stroke-linejoin="round" shape-rendering="crispEdges"/>
</g>
</svg>
