<svg width="64" height="64" viewBox="0 0 64 64" fill="none" xmlns="http://www.w3.org/2000/svg">
<path d="M53.3332 10.6665H10.6666C9.2521 10.6665 7.89554 11.2284 6.89535 12.2286C5.89515 13.2288 5.33325 14.5853 5.33325 15.9998V47.9998C5.33325 49.4143 5.89515 50.7709 6.89535 51.7711C7.89554 52.7713 9.2521 53.3332 10.6666 53.3332H53.3332C54.7477 53.3332 56.1043 52.7713 57.1045 51.7711C58.1047 50.7709 58.6666 49.4143 58.6666 47.9998V15.9998C58.6666 14.5853 58.1047 13.2288 57.1045 12.2286C56.1043 11.2284 54.7477 10.6665 53.3332 10.6665ZM23.9999 42.6665C23.9999 43.3737 23.719 44.052 23.2189 44.5521C22.7188 45.0522 22.0405 45.3332 21.3333 45.3332C20.626 45.3332 19.9477 45.0522 19.4476 44.5521C18.9475 44.052 18.6666 43.3737 18.6666 42.6665V31.9998C18.6666 31.2926 18.9475 30.6143 19.4476 30.1142C19.9477 29.6141 20.626 29.3332 21.3333 29.3332C22.0405 29.3332 22.7188 29.6141 23.2189 30.1142C23.719 30.6143 23.9999 31.2926 23.9999 31.9998V42.6665ZM34.6666 42.6665C34.6666 43.3737 34.3856 44.052 33.8855 44.5521C33.3854 45.0522 32.7072 45.3332 31.9999 45.3332C31.2927 45.3332 30.6144 45.0522 30.1143 44.5521C29.6142 44.052 29.3333 43.3737 29.3333 42.6665V26.6665C29.3333 25.9593 29.6142 25.281 30.1143 24.7809C30.6144 24.2808 31.2927 23.9998 31.9999 23.9998C32.7072 23.9998 33.3854 24.2808 33.8855 24.7809C34.3856 25.281 34.6666 25.9593 34.6666 26.6665V42.6665ZM45.3332 42.6665C45.3332 43.3737 45.0523 44.052 44.5522 44.5521C44.0521 45.0522 43.3738 45.3332 42.6666 45.3332C41.9593 45.3332 41.2811 45.0522 40.781 44.5521C40.2809 44.052 39.9999 43.3737 39.9999 42.6665V21.3332C39.9999 20.6259 40.2809 19.9476 40.781 19.4476C41.2811 18.9475 41.9593 18.6665 42.6666 18.6665C43.3738 18.6665 44.0521 18.9475 44.5522 19.4476C45.0523 19.9476 45.3332 20.6259 45.3332 21.3332V42.6665Z" fill="white"/>
</svg>
