<svg width="15" height="15" viewBox="0 0 30 30" fill="none" xmlns="http://www.w3.org/2000/svg">
<path d="M3.724 10.0554C5.142 7.59682 7.33188 5.67502 9.95378 4.58825C12.5757 3.50149 15.483 3.31054 18.2245 4.04504C20.966 4.77954 23.3885 6.39842 25.1159 8.65043C26.8432 10.9024 27.779 13.6617 27.7779 16.4999" stroke="#A7A7A7" stroke-width="3" stroke-linecap="round" stroke-linejoin="round"/>
<path d="M26.054 22.9444C24.636 25.403 22.4461 27.3249 19.8242 28.4116C17.2023 29.4984 14.295 29.6893 11.5535 28.9548C8.81194 28.2203 6.38952 26.6015 4.66213 24.3494C2.93474 22.0974 1.99899 19.3382 2.00009 16.5" stroke="#A7A7A7" stroke-width="3" stroke-linecap="round" stroke-linejoin="round"/>
<path d="M3.61121 2V10.0556H11.6668" stroke="#A7A7A7" stroke-width="3" stroke-linecap="round" stroke-linejoin="round"/>
<path d="M26.1668 30.9999V22.9443H18.1112" stroke="#A7A7A7" stroke-width="3" stroke-linecap="round" stroke-linejoin="round"/>
</svg>
